<?xml version="1.0" encoding="UTF-8" standalone="no"?>
<!-- Created with Inkscape (http://www.inkscape.org/) -->

<svg
   xmlns:dc="http://purl.org/dc/elements/1.1/"
   xmlns:cc="http://creativecommons.org/ns#"
   xmlns:rdf="http://www.w3.org/1999/02/22-rdf-syntax-ns#"
   xmlns:svg="http://www.w3.org/2000/svg"
   xmlns="http://www.w3.org/2000/svg"
   xmlns:sodipodi="http://sodipodi.sourceforge.net/DTD/sodipodi-0.dtd"
   xmlns:inkscape="http://www.inkscape.org/namespaces/inkscape"
   width="650"
   height="1000"
   id="svg30490"
   version="1.1"
   inkscape:version="0.48.3.1 r9886"
   sodipodi:docname="New document 19">
  <defs
     id="defs30492" />
  <sodipodi:namedview
     id="base"
     pagecolor="#ffffff"
     bordercolor="#666666"
     borderopacity="1.0"
     inkscape:pageopacity="0.0"
     inkscape:pageshadow="2"
     inkscape:zoom="0.35"
     inkscape:cx="-36.633929"
     inkscape:cy="450.73157"
     inkscape:document-units="px"
     inkscape:current-layer="layer1"
     showgrid="false"
     fit-margin-top="0"
     fit-margin-left="0"
     fit-margin-right="0"
     fit-margin-bottom="0"
     inkscape:window-width="646"
     inkscape:window-height="698"
     inkscape:window-x="146"
     inkscape:window-y="129"
     inkscape:window-maximized="0" />
  <metadata
     id="metadata30495">
    <rdf:RDF>
      <cc:Work
         rdf:about="">
        <dc:format>image/svg+xml</dc:format>
        <dc:type
           rdf:resource="http://purl.org/dc/dcmitype/StillImage" />
        <dc:title></dc:title>
      </cc:Work>
    </rdf:RDF>
  </metadata>
  <g
     inkscape:label="Layer 1"
     inkscape:groupmode="layer"
     id="layer1"
     transform="translate(-23.0625,16.90625)">
    <path
       style="fill:#ffffff;fill-opacity:1;stroke:#000000;stroke-width:9.63960075;stroke-miterlimit:4;stroke-opacity:1;stroke-dasharray:none;display:inline"
       d="m 511.02843,203.54127 c -33.45366,0 -62.6267,11.74299 -78.0077,29.14174 -10.23867,-3.41377 -21.46673,-5.29485 -33.22515,-5.29485 -48.23204,0 -87.33408,31.68059 -87.33408,70.75823 0,39.07764 39.10204,70.73828 87.33408,70.73828 15.25936,0 29.60695,-3.15169 42.08922,-8.72442 19.08121,17.58325 57.24372,29.58287 101.2231,29.58287 63.07269,0 114.20764,-24.67508 114.20764,-55.11452 0,-21.92783 -26.52506,-40.86345 -64.94273,-49.73931 5.26505,-7.30332 8.22084,-15.4154 8.22084,-23.98723 0,-31.67346 -40.09639,-57.36079 -89.56522,-57.36079 z"
       id="path13770"
       inkscape:connector-curvature="0" />
    <path
       style="fill:#ffffff;fill-opacity:1;stroke:#000000;stroke-width:9.15177631;stroke-linecap:round;stroke-linejoin:miter;stroke-miterlimit:4;stroke-opacity:1;stroke-dasharray:none;stroke-dashoffset:0;display:inline"
       d="m 121.47997,633.89407 c -45.791199,0 -82.914427,-26.60444 -82.914427,-59.40872 0,-32.80428 37.123228,-59.38954 82.914427,-59.38954 5.59654,0 11.06831,0.38533 16.3539,1.14245 1.77585,-27.34071 46.76502,-49.24066 101.99715,-49.24066 56.35841,0 102.05441,22.7983 102.05441,50.91624 0,28.11797 -45.696,50.91628 -102.05441,50.91628 -12.81249,0 -25.07362,-1.18133 -36.37167,-3.33223 0.62098,2.931 0.93505,5.93235 0.93505,8.98746 0,32.80428 -37.12323,59.40872 -82.91443,59.40872 z"
       id="path13776"
       inkscape:connector-curvature="0" />
  </g>
</svg>
