<?xml version="1.0" encoding="utf-8"?>
<!-- Generator: Adobe Illustrator 13.0.0, SVG Export Plug-In . SVG Version: 6.00 Build 14948)  -->
<!DOCTYPE svg PUBLIC "-//W3C//DTD SVG 1.1//EN" "http://www.w3.org/Graphics/SVG/1.1/DTD/svg11.dtd">
<svg version="1.1" xmlns="http://www.w3.org/2000/svg" xmlns:xlink="http://www.w3.org/1999/xlink" x="0px" y="0px" width="55px"
	 height="55px" viewBox="0 0 55 55" enable-background="new 0 0 55 55" xml:space="preserve">

<g id="Brush" >
	<g display="inline">
		<path fill="#FFFFFF" d="M26.939,32.777c0,0,9.546-10.04,12.062-13.721c3.697-5.406,5.988-10.829,3.994-11.775
			c-1.468-0.697-6.469,3.434-9.471,7.896C31.491,18.205,24,30.635,24,30.635L26.939,32.777z"/>
		<path fill="#FFFFFF" d="M25.613,34.668l-2.971-2.166c0,0-3.054,1.592-4.602,3.862c-1.546,2.284-2.31,6.661-4.752,9.01
			c-1.465,1.409-0.186,1.085-0.186,1.085s7.907-2.985,9.786-5.477C24.75,38.512,25.613,34.668,25.613,34.668z"/>
	</g>
</g>

</svg>
