<?xml version="1.0" ?><!DOCTYPE svg  PUBLIC '-//W3C//DTD SVG 1.1//EN'  'http://www.w3.org/Graphics/SVG/1.1/DTD/svg11.dtd' [
	<!ENTITY stroke_color "#FFFFFF">
	<!ENTITY fill_color "#FFFFFF">
]><svg enable-background="new 0 0 55 55" height="55px" version="1.1" viewBox="0 0 55 55" width="55px" x="0px" xmlns="http://www.w3.org/2000/svg" y="0px"><g display="block" id="trash">
 <g stroke="&stroke_color;" stroke-width="3.5" fill="none">
  <path d="m38.999,40.015c0.000869,0.91392-1.1854,1.8223-3.2239,2.4687-2.0385,0.64634-4.9039,1.0226-7.7872,1.0226-2.8832,0-5.7487-0.37631-7.7872-1.0226-2.0385-0.64634-3.2248-1.5547-3.2239-2.4687"/>
  <path d="m41.281,14.477a13.765,3.112,0,0,1,-27.529,0,13.765,3.112,0,1,1,27.529,0z"/>
 </g>
 <g stroke-linejoin="miter" stroke="&stroke_color;" stroke-width="1.5" fill="none">
  <path d="m13.755,14.612c3.5673,24.49,3.4302,24.354,3.4302,24.354"/>
  <path d="m15.952,16.457c3.8366,25.031,3.6562,25.622,3.6562,25.622"/>
  <path d="m20.661,17.47c2.2885,25.031,2.2453,25.623,2.2453,25.623"/>
  <path d="m26.832,18.01c0.06731,24.963,0.18033,25.397,0.18033,25.397"/>
  <path d="M34.281,17.792c-2.49,25.775-2.197,25.342-2.197,25.342"/>
  <path d="m39.329,16.34c-2.9026,25.706-2.961,25.806-2.961,25.806"/>
  <path d="m41.245,14.793c-2.625,24.016-2.5577,24.314-2.5577,24.314"/>
 </g>
</g></svg>
