<?xml version="1.0" encoding="UTF-8" standalone="no"?>
<!-- Created with Inkscape (http://www.inkscape.org/) -->

<svg
   xmlns:dc="http://purl.org/dc/elements/1.1/"
   xmlns:cc="http://creativecommons.org/ns#"
   xmlns:rdf="http://www.w3.org/1999/02/22-rdf-syntax-ns#"
   xmlns:svg="http://www.w3.org/2000/svg"
   xmlns="http://www.w3.org/2000/svg"
   xmlns:sodipodi="http://sodipodi.sourceforge.net/DTD/sodipodi-0.dtd"
   xmlns:inkscape="http://www.inkscape.org/namespaces/inkscape"
   width="257"
   height="257"
   id="svg4411"
   version="1.1"
   inkscape:version="0.48.3.1 r9886"
   sodipodi:docname="sticks.svg"
   inkscape:export-filename="/home/cananian/Projects/OLPC/Narrative/nell-colors/brushes/sticks-257.png"
   inkscape:export-xdpi="90"
   inkscape:export-ydpi="90">
  <defs
     id="defs4413" />
  <sodipodi:namedview
     id="base"
     pagecolor="#ffffff"
     bordercolor="#666666"
     borderopacity="1.0"
     inkscape:pageopacity="0.0"
     inkscape:pageshadow="2"
     inkscape:zoom="1.2298705"
     inkscape:cx="121.14786"
     inkscape:cy="32.747229"
     inkscape:document-units="px"
     inkscape:current-layer="layer3"
     showgrid="false"
     inkscape:window-width="1440"
     inkscape:window-height="847"
     inkscape:window-x="0"
     inkscape:window-y="27"
     inkscape:window-maximized="1" />
  <metadata
     id="metadata4416">
    <rdf:RDF>
      <cc:Work
         rdf:about="">
        <dc:format>image/svg+xml</dc:format>
        <dc:type
           rdf:resource="http://purl.org/dc/dcmitype/StillImage" />
        <dc:title></dc:title>
      </cc:Work>
    </rdf:RDF>
  </metadata>
  <g
     inkscape:label="Layer 1"
     inkscape:groupmode="layer"
     id="layer1"
     transform="translate(0,-795.36218)"
     sodipodi:insensitive="true"
     style="display:none">
    <path
       style="fill:#000000;fill-opacity:1;stroke:none"
       id="path4455"
       d="m 33.072265,14.882791 c 0.757926,4.289622 -0.469998,8.611125 -1.760226,12.673216 -1.516723,3.822719 -3.10653,7.591021 -4.380415,11.505077 -1.375262,4.501399 -2.352139,9.110766 -3.389748,13.698059 -1.064805,4.431713 -2.071117,8.88232 -2.600167,13.412955 -0.425931,3.00945 -0.22649,6.029753 -0.120889,9.048667 0.0053,0.150398 0.09348,4.796244 0.09669,4.964321 0.04442,5.341293 0.377545,10.643717 1.088424,15.936928 1.745318,8.699496 2.868285,17.490766 3.708923,26.318726 0.128236,1.57191 0.20648,3.1487 0.38471,4.71574 0.18159,1.59657 0.471517,3.17898 0.694213,4.77034 0.964057,6.88905 1.935858,13.77108 3.047976,20.63833 1.414602,9.10824 1.960464,18.31223 3.080026,27.45398 0.347902,3.40725 0.845276,6.79805 1.132725,10.2117 0.160089,1.90116 0.228084,3.79225 0.468864,5.6853 0.09664,1.41123 0.354648,2.69952 0.976151,3.96274 0.304862,0.39664 0.641525,2.66629 0.875622,2.71942 0.361204,0.78693 1.027093,1.36345 1.528467,2.04853 0.203134,0.27757 1.100976,1.75143 1.200195,1.91249 1.71463,2.84508 2.964937,5.91257 4.032497,9.04781 1.132635,2.55605 1.391241,5.35235 2.120189,8.01307 0.304747,1.58252 0.703665,3.1564 1.316126,4.64939 0.715817,1.67509 1.1102,3.40618 1.355502,5.20079 0.02743,0.16375 0.05486,0.3275 0.08228,0.49125 0.127423,0.42536 -5.887945,2.22739 -6.015368,1.80204 l 0,0 c -0.0718,-0.11107 -0.143606,-0.22214 -0.21541,-0.33321 -0.933245,-1.66489 -1.426205,-3.48675 -1.79365,-5.35349 -0.42408,-1.56555 -0.789525,-3.15354 -1.316562,-4.68634 -0.53269,-1.39736 -0.01179,-0.16063 -0.766921,-1.57478 -0.734902,-1.37626 -1.386998,-2.7942 -1.9168,-4.26192 -0.214748,-0.59493 -0.399599,-1.20022 -0.599399,-1.80033 -0.910607,-2.7934 -1.457529,-5.72272 -2.715484,-8.38871 -0.351278,-0.86216 -0.873843,-1.55326 -1.299189,-2.38128 -0.559906,-1.08997 -0.225406,-0.53142 -0.594391,-1.46995 -0.06192,-0.1575 -0.142693,-0.30691 -0.214039,-0.46037 -0.38702,-0.95011 -0.662254,-1.93044 -1.073622,-2.86386 -0.132786,-0.29213 -0.200791,-0.61328 -0.354059,-0.8952 -0.641128,-1.17928 -1.51453,-2.23779 -2.015132,-3.49991 -2.378842,-5.22025 -4.005801,-10.68345 -4.634717,-16.40879 -1.716088,-9.06467 -3.323127,-18.15337 -4.812268,-27.25667 -1.480774,-10.20987 -2.421568,-20.47314 -3.62343,-30.71644 -0.42524,-4.11568 -0.633583,-5.75612 -0.904085,-9.90694 -0.286097,-4.39013 -0.309049,-8.77895 -0.449578,-13.17309 -0.03804,-1.189375 -0.114734,-2.377198 -0.1721,-3.565797 -0.170818,-5.443237 -0.174094,-10.88933 -0.377528,-16.331721 -0.06311,-1.306197 -0.202379,-3.86415 -0.200523,-5.157901 0.0048,-3.331746 0.28783,-6.66976 0.610711,-9.982218 0.39817,-3.00641 0.22144,-1.491975 0.528586,-4.543492 0.424137,-3.229558 1.147176,-6.409769 1.818455,-9.593385 1.069207,-4.918224 2.199237,-9.845697 4.107095,-14.520419 1.510083,-3.66904 2.957086,-7.354347 3.973223,-11.199542 1.109663,-3.799033 2.09043,-7.65178 3.539973,-11.339319 0.05545,-0.463019 6.60352,0.321186 6.548069,0.784205 z"
       inkscape:connector-curvature="0"
       transform="translate(0,795.36218)" />
    <path
       style="fill:#000000;fill-opacity:1;stroke:none"
       id="path4457"
       d="m 51.857494,23.120799 c 0.250413,0.552738 0.54706,1.086781 0.751238,1.658216 0.520792,1.457544 1.096685,3.92646 1.418908,5.39112 0.677282,3.078582 1.103293,6.170913 1.513078,9.293505 0.798929,5.403772 1.442394,10.836865 1.868903,16.282898 0.03467,0.857156 0.05676,1.714913 0.104019,2.571467 0.0516,0.935281 0.170686,1.867059 0.192547,2.803508 0.0663,2.840058 -0.115883,3.097267 -0.283922,5.897558 -0.158088,2.634467 -0.13243,3.567374 -0.159271,6.252098 0.124474,5.307106 0.08976,10.62565 0.321527,15.92997 0.108616,2.485867 0.419528,5.915832 0.625592,8.388034 0.446436,4.031757 0.511727,8.089547 0.653106,12.139077 0.121237,3.47258 0.272671,4.4399 -0.05815,7.94415 -0.115766,1.22628 -0.35335,2.438 -0.530025,3.65699 -0.322064,1.50259 -0.872924,4.24949 -1.33706,5.79038 -0.199439,0.66213 -0.508533,1.28723 -0.719337,1.94582 -0.462413,1.44466 -0.536327,2.7281 -0.488729,4.22585 0.0583,0.54099 0.08677,1.08604 0.174893,1.62298 0.232604,1.41728 0.622785,2.80466 0.88912,4.21599 0.546036,2.8935 0.91647,5.80579 1.268923,8.72753 0.638846,5.26587 1.126199,10.54831 1.70698,15.8207 0.591877,4.68473 1.024695,9.34994 1.331237,14.06146 0.310404,5.52561 -0.304008,11.01636 -1.110195,16.47209 -0.0786,0.68753 -0.226802,1.37064 -0.235794,2.06259 -0.0221,1.70049 0.282878,3.39155 0.321625,5.09174 0.05837,2.5613 0.01543,5.13728 0.03421,7.70039 0.03208,4.89783 0.07907,9.7955 0.06856,14.69364 -0.313901,2.69612 -0.107446,5.43062 -0.503219,8.11709 -0.19018,1.29092 -0.07985,0.98401 -0.488527,1.74126 -0.702142,-1.05834 0.713313,1.14219 0.885264,1.41156 0.181171,0.43172 -5.924232,2.99386 -6.105403,2.56215 l 0,0 c -0.117972,-0.26964 -0.235944,-0.53928 -0.353916,-0.80892 -0.0055,-0.10088 0.01242,-0.2058 -0.01636,-0.30264 -0.2306,-0.77619 -0.815022,-1.40369 -1.088422,-2.15921 -0.14399,-0.38461 -0.323515,-0.75773 -0.431969,-1.15383 -0.839959,-3.06773 -0.22503,-6.33736 -0.622609,-9.45685 0.05479,-4.81437 0.126414,-9.63361 -0.152303,-14.44335 -0.122634,-2.61807 -0.331004,-5.27551 -0.315903,-7.89621 0.02409,-4.18063 0.186998,-1.48173 0.427659,-5.49024 0.04459,-0.74276 0.0036,-1.48819 0.0054,-2.23228 0.05961,-5.29759 0.592695,-10.57223 0.779452,-15.86594 0.259286,-4.38369 0.04788,-8.72672 -0.872079,-13.03537 -1.021646,-5.34496 -2.134356,-10.68098 -2.66132,-16.10497 -0.396834,-5.09387 -0.707187,-10.19142 -0.618779,-15.30481 0.05013,-4.29293 -0.01643,-8.58113 0.360988,-12.86178 0.07556,-1.37798 0.303152,-5.1894 0.299153,-6.5284 -0.01563,-5.23354 -1.084652,-10.36032 -1.520136,-15.559641 -0.305658,-3.427974 -0.569173,-5.702352 -0.628954,-9.158924 -0.09555,-5.524467 0.369592,-11.058551 0.977348,-16.542633 0.708198,-5.381117 1.574013,-10.83663 1.088023,-16.273183 -0.545245,-5.272606 -1.302619,-10.506944 -2.457674,-15.685497 -1.06431,-5.59381 -2.122084,-11.33089 -1.234402,-17.025863 -0.0411,-0.489789 6.885559,-1.071059 6.926661,-0.58127 z"
       inkscape:connector-curvature="0"
       transform="translate(0,795.36218)" />
    <path
       style="fill:#000000;fill-opacity:1;stroke:none"
       id="path4461"
       d="m 101.8267,28.818163 c -0.15898,5.599285 -2.54535,10.791943 -4.352888,15.999936 -1.250965,4.374679 -2.869084,8.636864 -4.041665,13.035736 -0.984369,3.692809 -1.103398,4.68144 -1.846758,8.521278 -2.142329,9.914866 -5.144183,19.612177 -8.163496,29.28676 -1.412148,4.223123 -2.733761,8.476387 -3.906445,12.772527 -0.368063,1.3484 -0.650873,2.72057 -1.061805,4.05654 -0.532989,1.73277 -1.717685,4.69437 -2.412392,6.47592 -1.840277,4.01008 -2.013404,6.60455 -1.531417,10.88476 0.512054,4.33905 1.003356,8.62962 0.04277,12.93553 -0.111487,0.30821 -0.27895,0.60161 -0.334461,0.92463 -0.164045,0.95457 0.124671,2.44553 0.201058,3.40398 0.138612,1.7392 0.11493,1.5092 0.220039,3.32899 0.248474,3.48826 0.680588,6.95657 0.673201,10.45761 -0.151054,3.03279 0.07301,6.05517 0.326801,9.07508 -0.03577,2.75924 -0.09519,5.51956 0.201509,8.26687 0.339696,3.00899 0.383236,6.04908 0.508435,9.07519 0.198936,3.58237 0.140645,7.16471 0.02602,10.74849 -0.17897,3.20201 -0.194348,6.39958 -0.566262,9.58869 -0.242886,1.98432 -0.156972,3.99322 -0.470098,5.97084 -0.02967,0.18742 -0.441515,2.07115 -0.505104,2.36369 -0.345145,2.1304 -0.540712,4.27941 -0.886646,6.41077 -0.3212,1.28967 -0.527858,2.59856 -0.873825,3.88217 -0.0943,0.47418 -6.800221,-0.85944 -6.705919,-1.33362 l 0,0 c 0.234292,-1.15291 0.531723,-2.28928 0.593721,-3.47146 0.167562,-1.10544 0.231231,-2.20755 0.436761,-3.30869 0.119157,-0.6384 0.325239,-1.26114 0.405636,-1.90556 0.04128,-0.33089 0.02921,-0.66627 0.04381,-0.9994 0.07386,-2.75432 0.05169,-5.51488 0.391006,-8.25524 0.25961,-3.01083 0.562725,-6.00062 0.214305,-9.02605 -0.0226,-3.53005 0.114279,-7.04821 0.371072,-10.56847 0.01566,-1.10343 0.04599,-1.60578 -0.0279,-2.69833 -0.140389,-2.07562 -0.707917,-4.10984 -0.596462,-6.20451 0.02694,-2.70402 0.381587,-5.40924 -0.150619,-8.09354 -0.166768,-3.08224 -0.476551,-6.15194 -0.458754,-9.24223 -0.329069,-3.59223 -0.714071,-7.18499 -0.859685,-10.78956 0.118004,-1.61039 0.269088,-3.20349 0.482954,-4.80388 0.01489,-0.11147 0.259938,-1.76349 0.228608,-1.99959 -0.03639,-0.27422 -0.197539,-0.51678 -0.296308,-0.77517 -1.030861,-4.14271 -0.87254,-8.41435 -0.891393,-12.65476 0.08081,-4.36082 0.114182,-8.72682 0.486345,-13.07513 0.309266,-2.7904 0.381876,-3.97625 0.960143,-6.81315 1.193472,-5.85502 3.133614,-11.527046 4.547589,-17.327323 2.65993,-9.744988 4.865712,-19.623937 8.151397,-29.187299 0.567492,-1.549994 1.134984,-3.099988 1.702476,-4.649982 0.517767,-1.262642 1.078525,-2.508499 1.553302,-3.787926 0.425477,-1.146576 0.754306,-2.326798 1.145737,-3.485439 1.094795,-3.2406 2.307096,-6.435081 3.591407,-9.605205 1.601859,-4.693582 2.95258,-9.731015 5.744165,-13.895158 0.362133,-0.540186 0.816157,-1.012743 1.224236,-1.519115 0.142114,-0.457201 6.607919,1.552599 6.465809,2.0098 z"
       inkscape:connector-curvature="0"
       transform="translate(0,795.36218)" />
    <path
       style="fill:#000000;fill-opacity:1;stroke:none"
       id="path4463"
       d="m 113.40958,46.079392 c 0.0605,0.587377 0.17248,1.171714 0.18155,1.76213 0.0137,0.891568 -0.0732,1.781849 -0.11344,2.672613 -0.21184,4.688593 -0.8347,9.330006 -1.32506,13.995787 -0.15293,3.165535 -0.43944,6.34299 -0.42692,9.515308 0.011,2.786684 0.19107,5.649536 0.28261,8.44087 0.008,0.870679 0.0254,1.741318 0.0254,2.612039 1e-5,2.114906 -0.0692,2.617064 0.0136,4.668132 0.10468,2.595041 0.43595,5.171143 0.73609,7.748448 1.65864,8.320351 2.30307,16.767221 2.48585,25.234251 0.14068,8.40113 -0.0338,16.80271 -0.14148,25.20308 0.0532,1.21051 0.0782,2.42259 0.15951,3.63153 0.17641,2.62366 0.48701,5.23669 0.70009,7.85762 0.33794,4.15691 0.52103,8.3199 0.73542,12.48437 0.39478,5.91249 -0.27724,11.80773 -0.80399,17.68734 -0.0181,3.35386 0.66706,6.64281 0.91958,9.98375 0.25861,2.09703 -0.77169,4.29004 -0.19059,6.35009 0.18899,1.25357 0.81876,2.26731 1.38133,3.37209 0.93585,2.12941 1.72401,4.31863 2.69696,6.43685 1.45534,2.5858 2.22117,5.45432 3.26308,8.21163 0.90538,1.94986 1.18833,4.08408 1.74854,6.13578 0.30907,0.84984 0.68245,1.62979 0.76619,2.52869 0.10825,0.43521 -6.04659,1.966 -6.15483,1.53078 l 0,0 c -0.55774,-0.61698 -0.48655,-1.53283 -0.94609,-2.22253 -0.88796,-1.91674 -1.89112,-3.77727 -2.49713,-5.81629 -0.95895,-2.69405 -2.22092,-5.26288 -3.21699,-7.94245 -0.84127,-2.19709 -1.418,-4.4448 -1.9687,-6.72522 -0.0895,-0.66947 0.014,-0.22893 -0.4621,-1.13134 -0.51134,-0.96918 -0.91088,-1.99252 -1.22543,-3.04172 -0.54364,-2.42438 -1.05533,-4.85429 -1.11559,-7.34917 -0.0487,-2.18349 -0.16968,-4.35354 -0.47082,-6.51882 -0.0797,-0.57324 -0.22822,-1.13541 -0.31067,-1.70827 -0.0822,-0.57127 -0.122,-1.14784 -0.183,-1.72175 -0.44014,-2.31079 -0.7242,-4.58883 -0.98661,-6.92586 -0.39879,-3.55159 -0.9087,-7.09515 -0.99628,-10.67517 -0.40777,-8.14705 -0.83364,-16.29234 -1.26711,-24.43813 -0.0966,-8.3492 -0.51953,-16.68463 -0.81995,-25.02796 -0.11376,-8.3835 -0.41422,-16.76488 -0.36227,-25.148944 0.1269,-2.332164 0.21747,-3.056268 0.15667,-5.317284 -0.0856,-3.182109 -0.51653,-6.350512 -0.69313,-9.527244 -0.53025,-6.36743 -1.35501,-12.744415 -1.01783,-19.144302 0.48189,-6.704525 1.31157,-13.629053 4.80976,-19.518614 0.12995,-0.469081 6.76376,1.36881 6.6338,1.83789 z"
       inkscape:connector-curvature="0"
       transform="translate(0,795.36218)" />
    <path
       style="fill:#000000;fill-opacity:1;stroke:none"
       id="path4467"
       d="m 133.86527,19.189102 c 1.03705,2.904664 1.32397,5.98984 1.7515,9.022272 0.70011,4.965754 0.13419,0.423512 0.71429,5.314657 0.60039,4.786386 1.46551,9.533223 2.14191,14.307892 0.62282,5.11054 0.42673,10.261396 0.67516,15.388617 0.3062,4.755019 0.29408,9.520841 0.53117,14.278365 0.16636,4.71024 0.4386,9.408759 0.44963,14.123355 -0.11383,4.862995 0.49255,9.6779 0.98601,14.50133 0.60762,5.07982 1.30799,10.1433 1.78306,15.2384 0.40927,5.02941 0.69962,10.07122 1.21363,15.09193 0.25299,5.18074 0.45232,10.36863 0.60335,15.55433 0.12074,4.42232 0.57066,8.83711 0.46684,13.26332 0.14776,4.23216 -0.17323,8.4535 -0.32959,12.67753 -0.41081,3.7575 0.0708,7.52522 0.26838,11.28238 0.0406,4.20677 0.48972,8.48479 -0.18139,12.66609 -0.10842,0.67555 -0.29713,1.33573 -0.4457,2.0036 -0.83205,3.43924 -0.42104,6.95417 -0.13035,10.42938 0.14688,3.01504 0.41717,6.10888 -0.0436,9.1132 -0.16877,1.10033 -0.47202,2.17615 -0.67362,3.27093 -0.39988,2.72433 -0.24571,5.49463 -0.40006,8.24113 -0.18412,1.75555 -0.0485,0.92194 -0.38394,2.50444 -0.0451,0.48603 -6.91868,-0.15221 -6.87355,-0.63825 l 0,0 c -0.0426,-1.07704 -0.0193,-0.50906 -0.0704,-1.7039 -0.31017,-3.05919 -0.12152,-6.08844 0.2741,-9.13217 0.15745,-3.83505 -0.5025,-7.6844 -0.22024,-11.52579 0.16682,-3.7159 0.44562,-7.43085 0.43371,-11.15149 -0.12943,-2.29436 0.005,-4.34469 0.0769,-6.63048 0.0778,-2.46713 -0.0326,-4.94158 0.11955,-7.40774 0.15922,-3.80085 0.5456,-7.60821 0.18895,-11.40816 -0.0453,-4.17852 -0.10208,-8.35377 0.10104,-12.53145 -0.11702,-2.74127 -0.0856,-1.35295 -0.0901,-4.16506 -0.0993,-2.96078 -0.54114,-5.90964 -0.76902,-8.8605 -0.27104,-5.1292 -0.80909,-10.23887 -0.90677,-15.37724 -0.11235,-4.92168 -0.39405,-9.84492 -0.9807,-14.73483 -0.68189,-5.09656 -1.19226,-10.20758 -1.78087,-15.31465 -0.52314,-5.06261 -1.15067,-10.141604 -0.84852,-15.241466 -0.008,-4.623581 -0.0475,-9.251269 -0.51752,-13.855699 -0.13557,-4.747347 -0.10901,-9.498917 -0.51995,-14.237381 -0.20302,-4.992843 -0.5681,-9.974302 -0.8023,-14.965192 -0.12255,-2.161653 -0.10952,-2.59297 -0.37528,-4.718626 -0.38747,-3.099191 -1.27439,-6.099262 -1.92871,-9.14696 -0.89319,-4.54607 -1.6018,-9.289536 -0.71348,-13.907316 0.1067,-0.554644 0.33375,-1.079198 0.50062,-1.618798 0,-0.47418 6.70593,-0.47418 6.70593,0 z"
       inkscape:connector-curvature="0"
       transform="translate(0,795.36218)" />
    <path
       style="fill:#000000;fill-opacity:1;stroke:none"
       id="path4469"
       d="m 230.54016,19.414051 c 1.66593,4.277616 1.99411,8.94128 2.23459,13.485668 0.0786,4.660244 -0.12259,9.323326 -0.24611,13.982854 -0.14193,3.176235 0.0955,6.355382 0.0259,9.532149 -0.0318,1.452331 -0.13806,2.902176 -0.18626,4.354055 -0.0695,4.51248 -0.27563,9.02208 -0.42389,13.532745 -0.0587,0.72836 -0.14032,1.455236 -0.17615,2.18508 -0.0732,1.490375 -0.0617,2.983977 -0.12752,4.474697 -0.0996,2.257678 -0.21971,4.513606 -0.30659,6.771907 -0.19792,4.625905 -0.0887,9.247956 0.0366,13.873504 -0.35888,4.93909 -0.43595,9.86754 -0.23579,14.81374 -0.13846,2.91251 0.35604,5.77959 0.57972,8.66841 0.13633,1.76079 0.091,2.27905 0.0646,3.99417 0.23832,4.32717 0.25506,8.65211 0.21789,12.98417 -0.0524,4.78657 0.38555,9.57237 0.77326,14.34138 0.60914,5.01328 0.67961,10.06971 0.62305,15.11297 0.011,5.06857 -0.30042,10.10858 -0.79573,15.15001 -0.41603,4.7465 -1.47512,9.3868 -2.4119,14.04586 -0.9915,3.94947 -2.09353,7.86816 -3.12473,11.80712 -1.26288,4.31721 -2.37385,8.67614 -3.54266,13.01934 -0.23197,0.68304 -0.4512,1.37055 -0.6959,2.04914 -0.65426,1.81437 -0.62448,1.3761 -1.09878,3.18422 -0.42438,1.61781 -0.7412,3.26714 -1.15201,4.88961 -0.54206,1.70134 -1.1203,3.37242 -2.11713,4.86189 -0.15454,0.4107 -5.96264,-1.77488 -5.80809,-2.18557 l 0,0 c -0.52786,-0.65778 0.26163,-3.26176 0.28588,-4.09367 0.33188,-1.7135 0.80672,-3.36947 1.19601,-5.06906 0.65534,-2.86105 0.0588,-0.49201 0.63904,-3.48492 0.12811,-0.66088 0.29345,-1.31399 0.44017,-1.97099 1.13468,-4.43799 2.31764,-8.86038 3.76767,-13.20862 1.2146,-3.6243 2.5197,-7.26348 2.96827,-11.08042 0.77154,-4.50919 1.40047,-9.03679 1.93982,-13.58037 0.60594,-4.78503 0.67343,-9.61214 0.79816,-14.42935 0.0126,-0.83676 0.0659,-3.88812 0.0496,-4.73449 -0.062,-3.21485 -0.43841,-6.41499 -0.67037,-9.61905 -0.50168,-5.04008 -0.82059,-10.11711 -0.6596,-15.18293 0.16681,-4.10867 0.57568,-8.21841 0.44034,-12.32796 -0.69674,-4.2164 -0.8668,-8.47703 -1.37804,-12.71706 -0.14,-1.87135 -0.26578,-3.2457 -0.31151,-5.13105 -0.0834,-3.43714 0.27521,-6.85883 0.40532,-10.29064 0.0662,-0.79767 0.16625,-1.593248 0.19857,-2.393004 0.1563,-3.867135 -0.22565,-7.74769 0.083,-11.61318 0.22471,-4.478369 0.61546,-8.957513 0.42172,-13.445351 0.13775,-2.408017 0.12224,-2.510605 0.34192,-4.889481 0.25316,-2.741429 0.71568,-5.479892 0.45629,-8.242365 -0.0779,-1.472295 -0.21655,-2.941719 -0.25945,-4.41545 -0.0948,-3.257468 0.17999,-6.512129 0.23347,-9.76705 0.16265,-4.424217 0.43933,-8.853648 0.0197,-13.273261 -0.35237,-4.394999 -1.09301,-8.90001 -0.18924,-13.269406 -0.0495,-0.472119 6.62728,-1.172111 6.67678,-0.699991 z"
       inkscape:connector-curvature="0"
       transform="translate(0,795.36218)" />
    <path
       style="fill:#000000;fill-opacity:1;stroke:none"
       id="path4471"
       d="m 201.10034,23.789627 c 0.47501,0.742894 0.99138,1.460906 1.42502,2.228682 1.23159,2.180615 2.21481,4.454278 3.18319,6.760834 0.89645,2.135211 3.0882,7.629768 3.749,9.607117 0.67022,2.005564 1.20006,4.055337 1.8001,6.083005 1.77434,7.658221 2.45629,15.576937 2.49115,23.432336 0.003,0.78041 -0.24475,8.871984 -0.27038,9.730105 -0.63509,11.622128 -1.67405,23.222644 -3.05836,34.779324 -0.74179,5.8185 -2.2305,11.48799 -3.65314,17.16335 -1.05988,4.22822 -2.03331,8.47624 -3.08237,12.70711 -1.80598,7.88159 -3.59766,15.76395 -5.30881,23.66693 -0.78208,3.46868 -2.09248,6.7699 -3.49116,10.02554 -0.78225,1.8208 -1.56763,3.48383 -2.72872,5.08568 -0.62189,0.42185 -0.94176,1.15797 -1.52623,1.61164 -0.47724,0.37042 -2.0247,1.29554 -1.58181,0.88467 2.42347,-2.2483 2.11819,-1.44542 1.95851,0.18138 -0.0839,1.50567 -0.73871,2.94008 -0.86815,4.43539 -0.0193,0.22342 0.0779,1.98218 0.0856,2.13571 0.16243,1.88137 0.0374,3.76875 -0.0325,5.65078 -0.0129,0.214 -0.0645,0.42915 -0.0388,0.64199 0.0163,0.13527 0.11798,0.24635 0.16171,0.37539 0.0894,0.26373 0.17151,0.53041 0.23699,0.80106 0.30952,1.27916 0.52934,2.56992 0.70595,3.87314 0.27406,2.58402 0.0273,5.17343 -0.15108,7.75322 -0.002,0.0317 -0.0508,0.73914 -0.0405,0.838 0.0206,0.19906 0.0723,0.39367 0.10843,0.5905 0.0303,0.22592 0.0676,0.45102 0.091,0.67777 0.0784,0.75869 0.0569,1.11779 0.0669,1.96235 0.20342,2.59894 -0.2385,5.19802 -0.4952,7.77968 0.082,1.65981 -0.58181,3.19352 -0.84084,4.79856 -0.0184,1.53971 -0.38633,3.04142 -0.59493,4.55998 -0.23787,0.90044 0.0693,0.86105 -0.35379,0.85899 -0.0235,0.4313 -6.12296,0.0995 -6.0995,-0.33176 l 0,0 c -0.097,-0.65157 -0.0356,-0.40036 -0.13506,-0.764 -0.0298,-1.71239 0.0858,-3.47161 0.80397,-5.05297 0.17256,-1.44692 0.18157,-2.74632 -0.0126,-4.21047 -0.11225,-2.85339 -0.0261,-5.78652 1.14679,-8.4426 0.075,-0.0616 0.18248,-0.0975 0.22513,-0.18476 0.2715,-0.55517 -0.66154,-1.84375 -0.68305,-2.35786 -0.65798,-2.65277 -0.51905,-5.37179 -0.51699,-8.08831 0.047,-1.94801 0.0798,-3.88448 -0.0831,-5.8289 -0.29837,-1.94993 -0.9152,-3.85634 -0.80187,-5.85666 0.0712,-2.69874 0.25288,-5.45079 1.22609,-7.99613 0.17863,-0.51851 0.54894,-1.7829 0.94959,-2.22376 0.73306,-0.80662 1.75871,-1.33567 2.41097,-2.20893 0.33311,-0.44599 -0.98771,0.5286 -1.41887,0.88068 -0.88218,0.72038 -0.61821,1.40399 -0.78296,0.13121 0.0634,-1.73082 0.37868,-3.3907 0.65134,-5.10144 0.52794,-3.31254 0.96798,-6.64251 1.74542,-9.91021 1.84413,-7.81344 4.19007,-15.5107 5.5866,-23.42503 0.61761,-3.87922 0.68481,-4.02471 1.13611,-8.04406 0.54587,-4.86147 0.4155,-4.81622 1.02465,-9.83919 0.22678,-1.86995 0.50836,-3.73287 0.75264,-5.60061 0.26454,-2.02264 0.51586,-4.04698 0.7738,-6.07047 0.49009,-3.49898 1.26853,-9.20367 1.83956,-12.69347 1.13262,-6.921851 2.9083,-13.732591 3.3949,-20.753596 -0.004,-1.463285 0.0529,-2.928015 -0.0123,-4.389855 -0.39274,-8.813637 -2.35549,-17.472893 -3.7649,-26.151542 -0.52912,-3.242943 -1.21109,-7.671121 -1.89291,-10.927395 -0.98885,-4.722596 -2.68846,-9.403663 -2.40843,-14.299289 -0.13709,-0.494845 6.86107,-2.433681 6.99816,-1.938836 z"
       inkscape:connector-curvature="0"
       transform="translate(0,795.36218)" />
    <path
       style="fill:#000000;fill-opacity:1;stroke:none"
       id="path4473"
       d="m 152.63933,229.03708 c -0.3822,-4.69927 0.6007,-9.37742 1.68949,-13.92352 1.01095,-4.79344 2.36588,-9.49861 3.89718,-14.14891 1.12922,-3.50659 2.18742,-7.05116 3.44181,-10.51627 0.49909,-1.37869 1.50858,-3.73467 2.08823,-5.11328 1.85018,-4.38709 3.92163,-8.68283 6.50472,-12.68688 1.69148,-2.72141 3.26142,-5.4964 4.62951,-8.39246 1.05561,-2.70003 1.7832,-5.52178 2.49499,-8.32883 0.51394,-2.73274 1.8007,-5.30523 1.99534,-8.09998 0.0351,-0.50453 0.005,-1.0115 0.008,-1.51726 -0.10488,-4.42385 -0.23843,-8.84424 -0.10405,-13.26864 0.16426,-3.1793 0.33583,-6.36616 0.76316,-9.52374 1.08328,-8.00466 -0.3162,3.42601 0.57311,-3.98968 0.65428,-2.71361 1.13215,-5.43778 1.30604,-8.22319 -0.0921,-3.20064 0.5079,-6.31233 1.10134,-9.43429 0.42733,-2.961142 0.75804,-5.929477 1.03346,-8.908345 0.6791,-3.435647 0.87307,-6.927723 1.18848,-10.407962 0.22472,-1.308569 0.37954,-2.62623 0.54554,-3.942632 0.0337,-0.267338 0.11086,-0.53082 0.11422,-0.800253 0.005,-0.371644 -0.21949,-1.788328 -0.26057,-2.06982 -0.63784,-3.102913 -0.46866,-6.279615 -0.22477,-9.41427 0.007,-2.868767 -0.0336,-5.737958 -9.4e-4,-8.606665 -0.15278,-3.075672 0.0203,-6.165713 -0.22271,-9.234746 -0.2302,-3.053749 -0.67402,-6.085167 -0.91818,-9.136736 0.18622,-1.098989 -0.13624,-2.217163 -0.0949,-3.310203 5.9e-4,-0.01551 0.0955,0.158168 0.106,0.177073 -0.22303,-0.421746 -0.19907,-0.37662 0.0713,0.135652 -0.28884,-0.319488 4.2294,-4.404343 4.51825,-4.084855 l 0,0 c 0.71683,0.854695 0.43748,0.519034 0.84077,1.004701 1.04821,1.588339 1.55869,3.434519 1.97936,5.276391 0.56944,3.156059 0.95787,6.33964 1.19926,9.537513 0.15517,3.208798 0.0795,6.416408 0.0265,9.627304 0.0399,2.900182 -0.0252,5.801533 -0.12481,8.699894 0.15541,2.984094 0.3096,5.988563 -0.0512,8.964491 -0.0172,0.62661 -0.0668,1.477381 0.0142,2.109662 0.0451,0.352031 0.16274,0.691576 0.21808,1.042139 0.2411,1.527153 0.29158,3.083095 0.29872,4.625682 -0.31177,3.560355 -1.00493,7.051884 -1.51967,10.587003 -0.44957,3.041929 -0.88743,6.084165 -1.33647,9.125222 -0.19118,1.46142 -0.24957,2.92817 -0.42296,4.38881 -0.18842,1.58729 -0.62692,3.13426 -0.78173,4.72677 -0.078,0.49076 -0.30509,1.83037 -0.34339,2.37843 -0.13294,1.90243 -0.0165,3.8277 -0.11386,5.73137 -0.0673,1.3989 -0.0901,2.80057 -0.19893,4.19686 -0.23365,2.99684 -0.69776,5.97757 -0.72793,8.99109 -0.16207,4.45045 0.0185,8.91531 -0.54729,13.34719 -0.3047,3.8392 -0.88595,7.6762 -2.32147,11.27583 -1.10376,2.95512 -2.01467,5.97522 -3.06816,8.94758 -0.61241,1.44775 -1.08039,2.97972 -1.76797,4.39283 -0.77712,1.59716 -1.74506,3.11396 -2.50882,4.72052 -1.82831,4.0079 -3.87581,7.92507 -5.3778,12.07303 -1.78684,5.1386 -3.48298,10.32407 -5.67617,15.3065 -1.53018,4.26686 -2.96447,8.63982 -3.61206,13.13532 -0.66152,4.70801 -1.46884,9.50673 -3.58357,13.81004 -0.0885,0.47634 -6.82496,-0.77514 -6.73647,-1.25148 z"
       inkscape:connector-curvature="0"
       transform="translate(0,795.36218)" />
    <path
       style="fill:#000000;fill-opacity:1;stroke:none"
       id="path4475"
       d="m 157.30705,40.056176 c -0.0291,0.506175 -0.0112,1.017265 -0.0874,1.518524 -0.42662,2.807739 -1.34146,5.729277 -1.9745,8.497918 -0.57198,2.501571 -1.06403,5.020764 -1.60653,7.528892 -0.15184,1.433315 -0.3482,2.86261 -0.45551,4.299944 -0.46569,6.237615 -0.41514,12.513543 -0.65345,18.760354 -0.32405,8.494558 -0.4556,9.25206 -1.08365,17.992267 -1.18927,9.236215 -2.67467,18.430025 -4.19036,27.616995 -1.07815,6.53497 -1.65808,10.46541 -3.09186,16.87895 -0.54193,2.42413 -1.20148,4.82046 -1.80223,7.23068 -0.60373,2.07551 -1.21065,4.15009 -1.81119,6.22652 -1.46003,5.04827 -1.45786,5.31616 -3.02673,10.00311 -0.40051,1.1965 -0.82307,2.38565 -1.25568,3.57092 -0.35664,0.97713 -0.79659,1.92449 -1.11185,2.91574 -0.27677,0.8702 -0.44069,1.77234 -0.66103,2.65851 -0.45959,6.31788 -0.79004,12.65753 -1.85521,18.91235 -0.25947,1.52363 -0.59186,3.03394 -0.8878,4.5509 -1.34582,5.8119 -3.5193,11.36714 -6.01481,16.76816 -1.26249,2.73225 -2.37985,5.53832 -3.71441,8.2361 -0.87315,1.32832 -1.32695,2.85444 -1.90761,4.31951 -0.14085,0.43939 -6.35473,-1.5525 -6.21388,-1.99189 l 0,0 c 0.5487,-1.48999 0.80735,-3.09894 1.2563,-4.62038 0.41709,-1.36066 0.82925,-2.73848 1.38376,-4.05115 0.55166,-1.30593 1.30482,-2.53226 1.68059,-3.9121 0.97733,-5.51017 1.34217,-11.11379 2.40481,-16.61297 1.5872,-7.71569 3.54936,-15.3521 4.8973,-23.11676 0.14568,-0.92337 0.34572,-1.83978 0.43705,-2.7701 0.21959,-2.2367 0.1184,-4.49432 0.25844,-6.7374 0.3924,-6.28538 0.37552,-3.55518 1.11078,-10.24475 0.22608,-2.05686 0.37906,-4.1211 0.56859,-6.18165 0.63797,-6.82073 0.72956,-8.34051 1.60865,-15.36224 0.73692,-5.88612 1.59433,-11.75662 2.35439,-17.63981 0.39736,-3.07574 0.74737,-6.15767 1.16842,-9.23026 0.42598,-3.10864 0.915,-6.208319 1.37251,-9.312476 2.684,-13.786178 5.50708,-27.55105 8.70748,-41.227614 0.35215,-1.392259 0.64656,-2.800409 1.05644,-4.176779 1.29312,-4.342263 3.09927,-8.792594 5.72145,-12.522732 0.40091,-0.570309 0.8891,-1.073971 1.33366,-1.610956 0.20051,-0.430281 6.28559,2.405392 6.08508,2.835673 z"
       inkscape:connector-curvature="0"
       transform="translate(0,795.36218)" />
  </g>
  <g
     inkscape:groupmode="layer"
     id="layer2"
     inkscape:label="Layer"
     sodipodi:insensitive="true"
     style="display:none">
    <path
       style="fill:#000000;fill-opacity:1;stroke:none"
       id="path4486"
       d="m 33.983299,17.319282 c 0.0091,0.483253 0.05703,0.967326 0.02743,1.449758 -0.238249,3.883759 -1.54747,8.071648 -2.489545,11.852401 -0.461011,2.151444 -1.161772,4.255324 -1.510981,6.431815 -0.332212,2.070545 -0.327435,4.20145 -0.419818,6.290796 0.213202,5.532569 -0.09784,11.059513 -0.323184,16.584961 -0.275092,5.314715 0.06617,10.614258 0.85884,15.868284 0.165937,1.133653 0.348758,2.264963 0.497811,3.40096 0.168174,1.281724 0.284066,2.569969 0.453778,3.85149 0.428754,3.237593 0.852043,5.265046 1.140566,8.556471 0.3168,3.613991 0.2267,4.730472 0.195801,8.264916 0.04124,3.529946 -0.590601,7.040266 -0.636571,10.564356 -0.01296,0.99348 0.151996,2.65391 0.234282,3.63044 0.06229,0.66445 0.113138,1.33006 0.18687,1.99334 0.170027,1.52952 0.49058,3.62095 0.617397,5.12287 0.25958,3.07423 0.250083,6.15409 0.203238,9.23495 0.02251,3.665 -0.36936,7.31322 -0.531582,10.96996 -0.07684,3.06886 -0.02266,1.56204 -0.159114,4.52057 -0.0141,4.4715 0.15665,8.94149 0.07127,13.41246 0.06219,4.51516 0.02018,9.02832 -0.006,13.54432 -5.81e-4,0.74264 -0.01225,1.48535 -0.0017,2.22791 0.01103,0.7799 0.06472,1.55901 0.06636,2.33898 0.007,3.31729 -0.294837,6.63297 -0.516111,9.94015 -0.06219,4.73889 -0.163203,9.45697 -0.708321,14.16745 -0.883008,3.67915 -0.08955,7.35666 0.388398,11.02688 0.423344,4.07237 0.150114,0.82784 0.315645,4.7934 0.08866,2.12395 0.200801,4.12636 -0.216667,6.22146 -0.02087,0.27841 -0.04174,0.55682 -0.0626,0.83524 -0.03458,0.0127 -0.09103,0.004 -0.103735,0.0383 -0.06032,0.16422 0.454549,0.49839 0.619916,0.73323 0.180428,0.25623 0.318736,0.53967 0.478105,0.8095 0.807342,1.23525 1.481563,2.59448 2.01009,3.93805 0.10536,0.20176 0.670202,1.14231 0.380391,0.62857 0.264052,0.33445 -4.46576,4.06872 -4.729813,3.73427 l 0,0 c -1.225312,-1.39002 0.452591,0.53397 -0.813721,-0.64059 -1.395378,-1.47963 -2.530777,-3.12083 -3.112678,-5.09988 -0.553091,-1.4174 -0.998821,-2.87835 -1.488486,-4.31722 -1.528533,-3.47256 -1.599643,-7.33263 -1.794835,-11.06585 -0.06184,-1.5081 -0.137948,-3.06379 -0.151867,-4.57403 -0.02293,-2.48823 0.278141,-4.96888 0.0407,-7.45551 -0.01349,-4.73652 0.02226,-9.47993 0.280709,-14.20941 0.249121,-4.69223 0.740777,-9.3767 0.67487,-14.08032 -0.01406,-4.50753 -0.0322,-9.01257 0.02079,-13.51895 -0.106055,-4.47573 0.0055,-8.95314 -0.04504,-13.42979 -0.233515,-5.18717 -0.383169,-10.38491 -0.371011,-15.5775 0.02079,-2.99156 0.07988,-5.98203 0.252794,-8.96954 0.10461,-1.80742 0.283479,-3.03334 0.279516,-4.81355 -0.0014,-0.64396 -0.06216,-1.28644 -0.09323,-1.92966 -0.09152,-1.15518 -0.206217,-2.75838 -0.347586,-3.90344 -0.42469,-3.4399 -1.285014,-6.81564 -1.621144,-10.26949 -0.438708,-3.073476 -0.74901,-4.902002 -0.982243,-8.053744 -0.392682,-5.306432 -0.242354,-10.626816 -0.242439,-15.940853 -0.03554,-1.951592 -0.04147,-3.716015 -0.171267,-5.656031 -0.24822,-3.709956 -0.870867,-7.409464 -0.566885,-11.141205 0.174407,-5.588602 0.506229,-11.17196 1.012376,-16.739751 0.357203,-4.674375 0.849112,-9.347643 1.846449,-13.93509 0.987183,-4.720523 1.902761,-9.563889 4.597979,-13.666864 0.142115,-0.457202 6.607923,1.552598 6.465808,2.0098 z"
       inkscape:connector-curvature="0" />
    <path
       style="fill:#000000;fill-opacity:1;stroke:none"
       id="path4488"
       d="m 231.78228,15.309482 c 0.33718,0.46769 0.7077,0.913065 1.01154,1.403069 0.9575,1.544142 1.42319,2.693577 2.16465,4.374834 1.06634,2.417917 2.00987,4.863214 2.91931,7.34356 1.50383,4.219636 2.64153,8.547978 4.14121,12.76574 0.23084,0.617578 0.44657,1.241025 0.69254,1.852735 2.01957,5.022419 -0.5081,-1.576283 1.63974,3.889904 0.90225,2.296194 1.63273,4.651493 2.42493,6.986701 1.53343,4.98172 3.00206,9.983062 4.46156,14.98779 1.53431,5.167399 2.45358,10.451503 2.91183,15.813733 0.14473,4.770586 0.298,9.546919 0.20081,14.319818 -0.0464,4.680114 -0.0509,9.365964 -0.2332,14.045784 -0.2572,5.37627 -0.79009,10.73459 -1.40945,16.08003 -0.34947,3.34788 -1.02726,6.65015 -1.49567,9.98056 -0.21859,1.55416 -0.37208,3.11681 -0.56909,4.67386 -0.6573,4.70557 -1.53188,9.37458 -2.35313,14.05301 -0.14644,0.77917 -0.31168,1.55504 -0.43932,2.33751 -0.2557,1.56752 -0.42195,3.14849 -0.6612,4.7186 -0.37605,2.4679 -0.86417,4.91374 -1.32066,7.36745 -0.93074,4.59331 -1.65937,9.22341 -2.56222,13.82178 -0.76717,4.77343 -1.77109,9.48933 -2.93494,14.18006 -1.17064,4.31535 -2.24741,8.65043 -3.17919,13.02356 -0.2973,2.0279 -0.99886,3.96668 -1.32192,5.98887 -0.0999,0.62562 -0.11851,1.26195 -0.20485,1.88959 -0.2598,1.88875 -0.29986,1.86567 -0.7327,3.61149 -0.30723,2.06476 -0.45104,4.14867 -0.79192,6.20949 -0.39878,1.85342 -0.23048,0.94908 -0.51351,2.7114 -0.17317,1.67389 -0.58037,3.30513 -0.87881,4.95671 -0.0434,0.49966 -7.10957,-0.11349 -7.06622,-0.61315 l 0,0 c 0.0738,-1.74862 0.1862,-3.49012 0.60282,-5.19854 0.35586,-2.98634 0.72483,-5.96126 0.90068,-8.96431 0.0896,-2.65037 0.59662,-5.18518 0.99167,-7.80067 0.10372,-0.68672 0.16269,-1.38018 0.28208,-2.06435 0.12544,-0.71878 0.3013,-1.42785 0.45194,-2.14178 0.2878,-1.4706 0.54082,-2.94811 0.84861,-4.41466 0.62615,-2.98349 1.58756,-5.87708 2.28061,-8.84443 1.04427,-4.62918 1.65334,-9.34435 2.85183,-13.93968 0.92745,-4.53265 1.55853,-9.11512 2.36342,-13.67014 0.78657,-4.81048 1.68758,-9.60366 2.56651,-14.39808 0.78832,-4.57641 1.5902,-9.14916 2.24732,-13.74677 0.64053,-4.87402 1.15762,-9.7601 1.65879,-14.65019 0.67389,-5.20243 1.22613,-10.42303 1.53272,-15.66134 0.22601,-2.33314 0.612,-4.68142 0.72034,-7.02377 0.10189,-2.20312 -0.0494,-1.98816 -0.10409,-4.18514 -0.0188,-0.75382 0.002,-1.508111 0.002,-2.262166 -0.0941,-2.325106 -0.13034,-4.646784 -0.14845,-6.973767 -0.0117,-1.507903 0.0596,-3.016934 0.004,-4.523846 -0.0259,-0.698592 -0.11471,-1.393432 -0.17206,-2.090148 -0.69614,-4.927434 -1.79446,-9.78645 -3.08301,-14.591471 -1.30259,-4.963125 -2.74033,-9.890537 -4.19244,-14.811932 -1.19144,-4.183807 -2.30779,-8.396958 -3.96732,-12.428693 -1.76603,-4.128438 -3.31701,-8.33377 -4.9087,-12.531254 -1.84485,-4.445391 -3.92319,-8.955556 -4.09519,-13.847561 -0.14212,-0.457202 6.32369,-2.467002 6.4658,-2.0098 z"
       inkscape:connector-curvature="0" />
    <path
       style="fill:#000000;fill-opacity:1;stroke:none"
       id="path4490"
       d="m 199.28141,233.67311 c -0.0112,-0.55382 -0.0478,-1.10771 -0.0335,-1.66145 0.0153,-0.58857 0.27296,-3.99747 0.30365,-4.43364 0.19025,-2.70405 0.33453,-5.40047 0.59497,-8.09913 0.24244,-3.33528 0.44411,-6.68132 0.36487,-10.02762 -0.16048,-6.77672 -0.14695,1.84709 -0.11675,-5.31363 -0.0337,-5.15477 0.8437,-10.23909 1.20459,-15.36465 0.22681,-4.64557 0.66939,-9.27427 0.64187,-13.92823 0.0238,-4.90884 -0.25286,-9.80885 -0.2511,-14.71973 -0.14062,-4.85601 -0.6581,-9.67989 -1.08047,-14.51441 -0.18531,-3.31542 -0.81561,-6.57679 -1.14197,-9.87574 -0.009,-0.0918 -0.39685,-5.01411 -0.4123,-5.2101 -0.43354,-4.94686 -0.8285,-9.89465 -1.2466,-14.84227 -0.38471,-4.86484 -0.68251,-9.72826 -0.93565,-14.60132 -0.23545,-4.827519 -0.73662,-9.633201 -0.94355,-14.462439 -0.21958,-4.538202 -0.63908,-9.060246 -0.98373,-13.589322 -0.46901,-4.530847 -0.76435,-9.076836 -1.31428,-13.60232 -0.64176,-4.779141 -1.349,-9.538671 -1.69798,-14.35133 -0.25765,-3.973395 -0.88967,-7.914464 -1.64909,-11.822311 -0.75782,-2.816798 -1.06221,-5.717757 -1.53061,-8.58732 -0.57176,-3.502717 -0.29549,-0.867174 -0.55934,-4.228594 -0.0933,-1.827894 -0.3389,-3.645372 -0.32417,-5.477574 -0.11524,-0.444147 6.16594,-2.073982 6.28119,-1.629835 l 0,0 c 1.13705,1.89637 1.62578,4.014867 2.14922,6.145463 0.78563,3.768633 0.0534,5.13e-4 0.67266,4.081424 0.43402,2.860394 1.18407,5.666811 1.46043,8.554874 0.57763,4.100146 1.40915,8.150603 1.96427,12.253691 0.61676,4.742662 1.36181,9.467554 1.74908,14.239245 0.33425,3.062292 0.51402,6.137706 0.83029,9.200271 0.0777,0.752784 0.22278,1.497791 0.29475,2.251148 0.0775,0.810876 0.10222,1.625927 0.15333,2.43889 0.33879,4.581041 0.76664,9.155052 1.10561,13.736249 0.31295,4.808867 0.7836,9.605772 1.00358,14.42023 0.31602,4.80358 0.47157,9.61718 0.93892,14.4106 0.42477,4.93501 0.9707,9.85538 1.40869,14.78829 0.51782,5.03607 0.80292,10.09186 1.41067,15.11876 0.44511,5.02119 1.07873,10.03063 1.18015,15.07608 0.10972,4.9703 0.066,9.93708 0.0827,14.90767 -0.16629,4.78528 -0.31685,9.57016 -0.57527,14.35182 -0.37457,4.96977 -0.86157,9.93654 -0.96126,14.92166 -0.10675,5.26202 0.15604,10.52056 -0.0561,15.78107 -0.21753,5.129 -0.56882,10.58851 -3.38854,15.04178 -0.0973,0.46621 -6.69057,-0.91004 -6.59325,-1.37625 z"
       inkscape:connector-curvature="0" />
    <path
       style="fill:#000000;fill-opacity:1;stroke:none"
       id="path4492"
       d="m 173.02124,25.037404 c 1.09316,4.33996 1.35202,8.874786 1.4948,13.336448 0.13774,4.401736 0.84377,8.746538 1.47812,13.094712 0.81815,4.706997 1.18686,9.47595 1.69961,14.222649 0.21047,3.253977 0.69356,6.481441 1.04515,9.718936 0.1661,1.529505 0.24501,3.067282 0.38369,4.599518 0.38184,4.654114 1.09083,9.269747 1.63043,13.905714 0.41411,5.038956 0.66765,10.087809 0.86094,15.140069 -0.15867,4.82367 -0.0665,9.65231 -0.21088,14.47529 -0.0899,4.6841 -0.49497,9.35359 -0.77733,14.02768 -0.4199,4.67495 -0.45366,9.36575 -0.76962,14.0476 -0.0528,0.79549 -0.0838,1.59273 -0.15835,2.38647 -0.45238,4.81439 -0.12559,0.0199 -0.55984,4.59792 -0.21631,2.28035 -0.3504,4.57472 -0.54511,6.85786 -0.41723,4.13082 -0.37443,8.28075 -0.53781,12.42395 0.56424,4.2284 1.13409,8.43454 1.20817,12.70566 -0.24238,3.5172 -0.6604,7.03863 -0.65851,10.56656 -0.20652,3.33687 0.003,6.71198 0.3695,10.03245 0.26342,3.26079 0.2491,6.52718 0.28906,9.7971 -0.18487,1.88458 0.18538,3.74841 0.35429,5.6168 0.0478,0.52895 0.17703,2.74177 0.20775,3.25171 -0.25442,2.23841 0.3619,4.84503 -0.71608,6.9211 -0.0269,0.44594 -6.33347,0.0654 -6.30656,-0.38052 l 0,0 c -0.85791,-1.51796 -0.18348,-4.47546 -0.66018,-6.20302 -0.13377,-3.05002 -0.37054,-6.09826 -0.32496,-9.15422 -0.0119,-3.18947 -0.74885,-6.28508 -1.04443,-9.45449 -0.0428,-3.53293 0.23704,-7.05772 0.11672,-10.5891 0.16885,-3.40586 0.18715,-6.84623 -0.15215,-10.23993 -0.12258,-4.21867 -0.1978,-8.43872 -0.62903,-12.64151 -0.46271,-4.42973 -0.48681,-8.89127 -0.064,-13.32728 0.46759,-4.55214 0.97697,-9.09972 1.12671,-13.67764 0.33421,-4.6118 0.71169,-9.21966 0.99955,-13.83435 0.0254,-1.05088 0.0789,-3.59313 0.13636,-4.63507 0.16913,-3.06819 0.61247,-6.12604 0.43931,-9.20772 0.005,-4.72254 0.38214,-9.44524 0.08,-14.16725 -0.0691,-4.85138 -0.38744,-9.702778 -0.78933,-14.536921 -0.47554,-4.660138 -0.80355,-9.331938 -1.34664,-13.985379 -0.68427,-6.00846 0.26315,1.896052 -0.65237,-4.398042 -0.48017,-3.301153 -0.75309,-6.639782 -1.08738,-9.957159 -0.3657,-4.646158 -0.56787,-9.311819 -1.35168,-13.915626 -0.61462,-4.545814 -1.32078,-9.080289 -1.77166,-13.646909 -0.40409,-4.567414 -0.93602,-9.304847 0.36817,-13.77406 0,-0.482634 6.82548,-0.482634 6.82548,0 z"
       inkscape:connector-curvature="0" />
    <path
       style="fill:#000000;fill-opacity:1;stroke:none"
       id="path4494"
       d="m 157.34396,68.450462 c -0.37588,3.638922 -1.592,7.102426 -2.55108,10.611092 -0.58934,2.156026 -1.15453,4.31859 -1.74061,6.475503 -1.10021,4.29737 -2.06033,8.650137 -2.39701,13.083642 -0.23015,3.030641 -0.29211,6.071741 -0.45723,9.106621 -1.0374,9.63409 -2.60376,19.20187 -4.03398,28.78306 -0.47048,5.16177 -1.12646,10.30742 -1.39743,15.48608 -0.12822,2.45066 -0.18794,4.90444 -0.29191,7.35626 -0.48233,4.60043 -0.88892,9.18579 -0.65438,13.81186 0.11132,4.37614 0.36598,8.78052 -0.0437,13.14461 -0.0592,1.95582 -0.5415,3.87112 -0.74472,5.80725 -0.16423,1.56474 -0.16646,3.17348 -0.27148,4.74551 -0.16264,1.88498 -0.40606,3.65332 -0.19813,5.54118 0.34895,3.23271 0.10617,6.49024 -0.0582,9.72744 -0.25818,3.42572 0.0124,6.86639 -0.19583,10.2901 -0.0516,0.38851 -0.10327,0.77701 -0.1549,1.16551 0.0149,0.50585 -7.13887,0.71711 -7.15381,0.21126 l 0,0 c -0.0789,-0.38689 -0.1578,-0.77379 -0.2367,-1.16068 -0.46253,-3.6145 -0.44038,-7.28848 -0.34026,-10.9254 0.096,-1.33465 0.16171,-2.62859 0.36402,-3.95298 0.0102,-0.0665 0.57366,-2.94671 0.64124,-3.2318 0.0835,-0.3522 0.22895,-0.689 0.29678,-1.04456 0.0581,-0.30456 0.0529,-0.61784 0.0793,-0.92676 0.13945,-1.95487 -0.60225,-3.77716 -0.66324,-5.72798 -0.18014,-3.64565 0.12705,-7.28858 0.32006,-10.92972 0.0766,-4.17811 0.2614,-8.35362 0.28047,-12.53288 -0.0343,-4.76658 -1.19005,-9.40063 -1.496,-14.1483 -0.0117,-1.26949 -0.0562,-2.5391 -0.0351,-3.80847 0.11004,-6.62081 0.95398,-13.20571 1.14632,-19.82256 0.54986,-9.74949 1.20831,-19.52333 3.18421,-29.10845 0.88595,-4.38741 1.76532,-8.778373 2.80019,-13.133923 0.26009,-1.094679 0.5811,-2.17475 0.82301,-3.27359 0.31879,-1.447976 0.92259,-5.089194 1.16456,-6.504714 1.2263,-5.65852 2.7773,-11.510893 6.19871,-16.296476 0.43475,-0.608086 0.97345,-1.134677 1.46017,-1.702016 0.20395,-0.449482 6.56058,2.434799 6.35663,2.884281 z"
       inkscape:connector-curvature="0" />
    <path
       style="fill:#000000;fill-opacity:1;stroke:none"
       id="path4496"
       d="m 97.887712,229.92069 c -1.232106,-5.29921 -0.327636,-10.71521 0.687133,-15.96409 1.157331,-4.98734 2.447465,-9.94294 3.677015,-14.91321 1.14137,-5.52664 1.97115,-11.10851 2.95679,-16.66403 1.238,-6.10323 1.94138,-12.29631 3.13775,-18.40859 0.31212,-1.59461 0.67571,-3.17872 1.01356,-4.76809 2.02992,-9.57777 5.06958,-18.89796 8.02017,-28.221 2.54309,-7.8353 4.73314,-15.78747 6.6204,-23.80554 0.86376,-4.10416 1.87238,-8.180979 2.64182,-12.305011 0.66223,-3.549445 1.23457,-7.094475 1.99751,-10.625844 0.60402,-3.179422 1.39696,-6.369546 1.19453,-9.625475 -0.019,-0.412927 -0.007,-0.828463 -0.0571,-1.238779 -0.051,-0.417583 -0.17886,-0.822579 -0.24539,-1.237972 -0.14855,-0.927615 -0.27736,-1.859159 -0.367,-2.794307 -0.27131,-2.830205 0.17953,0.02846 -0.3066,-2.712266 -0.0676,-0.475926 -0.11298,-0.955558 -0.20292,-1.427777 -0.41252,-2.165882 -0.33579,-0.835113 -0.64382,-3.119701 -0.16623,-1.232917 -0.20832,-2.424186 -0.47894,-3.641416 -0.33212,-1.991325 -1.63918,-3.547596 -2.65766,-5.233475 -1.69221,-2.951079 -3.10326,-6.061583 -4.46812,-9.17502 -0.58323,-1.525743 -1.26694,-3.018086 -1.81705,-4.556724 -0.4071,-1.13863 -0.68139,-2.303605 -1.0965,-3.439039 -0.29587,-1.107991 -0.52638,-2.224491 -0.89255,-3.310465 -0.14833,-0.426393 5.88177,-2.524206 6.03011,-2.097813 l 0,0 c 0.53496,1.050869 1.00101,2.135186 1.49123,3.207343 1.14962,2.59508 2.94545,4.884164 3.92058,7.573572 1.16321,2.954064 2.05267,6.021919 3.52782,8.848772 1.02345,2.158371 2.10914,4.297168 2.97634,6.520518 0.9544,2.936237 1.50486,5.933471 1.75054,9.012817 0.27581,2.841311 0.80792,5.658684 0.74579,8.525891 0.12753,3.572525 1.11002,7.077763 1.21466,10.659221 0.022,1.132464 0.10034,2.26524 0.0659,3.397392 -0.21773,7.15093 -2.15491,14.095028 -3.72644,21.027848 -2.15823,8.01972 -4.28631,16.0462 -6.44465,24.06575 -2.25724,9.40556 -4.64553,18.7926 -7.4125,28.06089 -1.22325,4.38352 -2.46199,8.76499 -3.9007,13.08425 -0.81682,2.45226 -1.45628,3.78303 -2.01548,6.24024 -0.19828,0.87126 -0.29054,1.76329 -0.4358,2.64493 -0.24328,2.09091 -0.42844,3.97762 -0.81525,6.05449 -0.70883,3.8059 -1.81313,7.53997 -2.78364,11.28272 -1.22295,4.75358 -2.50291,9.50488 -3.02412,14.40139 -0.40495,2.8824 -0.87943,5.73677 -1.40003,8.6003 -0.33228,1.82767 -0.51973,3.24405 -1.04404,5.01913 -0.17054,0.57735 -0.42047,1.12821 -0.63071,1.69232 -0.0448,0.48101 -6.847449,-0.15313 -6.802608,-0.63415 z"
       inkscape:connector-curvature="0" />
    <path
       style="fill:#000000;fill-opacity:1;stroke:none"
       id="path4498"
       d="m 103.85474,37.937308 c 0.49328,4.2752 -0.20651,8.572543 -0.32612,12.856265 -0.0422,4.230862 0.87023,8.356391 1.40427,12.529169 0.7465,5.451203 0.51475,10.957973 0.25547,16.433826 -0.29599,4.890192 -0.31856,9.792054 -0.42237,14.688915 -0.0873,5.236063 -0.65152,10.434347 -1.20975,15.634957 -0.64805,4.99339 -1.57466,9.94084 -2.37605,14.91011 -0.76248,5.04751 -1.955745,9.99971 -3.307739,14.91676 -1.134589,4.38844 -2.541792,8.69154 -3.889518,13.01555 -1.180523,3.50796 -1.863364,7.17431 -2.460088,10.82145 -0.100158,0.66445 -0.172529,1.33368 -0.300475,1.99334 -0.373416,1.92525 -0.897401,3.82659 -1.266571,5.75445 -0.228696,1.19428 -0.408707,2.6472 -0.571489,3.84296 -0.123903,0.70835 -0.231544,1.41974 -0.371708,2.12505 -0.428829,2.15787 -0.407542,1.50611 -0.755699,3.55443 -0.29972,1.76337 -0.468973,3.54785 -0.64252,5.3266 -0.07766,3.90722 -0.752544,7.7644 -0.983601,11.65601 -0.08335,3.74071 0.152643,7.47343 -0.331498,11.19549 -0.468179,3.11028 -0.394615,6.25794 -0.569219,9.3904 -0.01532,4.24878 -0.110133,8.27549 -1.243672,12.39715 -0.07505,0.14988 -0.762248,2.21898 -1.142374,2.29241 -0.07798,0.0151 -0.314555,-1.00298 -0.420786,-1.41348 0.488347,0.83261 0.686853,1.71411 0.86367,2.64356 0.02785,0.45932 -6.467954,0.85321 -6.495806,0.39389 l 0,0 c 0.0701,-0.56923 0.03774,-1.01914 0.500343,-0.13461 -0.73091,-1.40309 -0.907388,-3.15759 -1.076976,-4.70092 -2.97e-4,-2.74475 0.22247,-5.48496 0.678419,-8.19391 0.112351,-0.66752 0.280066,-1.32504 0.388936,-1.99313 0.09772,-0.59968 0.153669,-1.20542 0.230503,-1.80812 0.327641,-3.09543 0.419399,-6.1981 0.441216,-9.31081 -0.004,-3.51062 -0.03958,0.19457 0.126649,-3.53031 0.11257,-2.52251 -0.07359,-5.0525 0.04595,-7.57598 0.182768,-4.06123 0.368567,-8.12424 1.037735,-12.14184 0.579645,-3.76572 0.783426,-7.58188 1.541145,-11.31882 0.763544,-3.85973 1.543572,-7.71545 2.366822,-11.5631 0.219696,-1.27447 0.369272,-2.5607 0.603463,-3.83259 0.483732,-2.62715 1.158921,-5.22868 1.849328,-7.80706 1.173634,-4.30341 2.127876,-8.66497 3.319566,-12.96458 1.199171,-4.70212 2.41073,-9.41174 3.255665,-14.19247 0.788454,-4.86501 1.4749,-9.73709 2.001886,-14.63783 0.644935,-4.97876 1.319669,-9.96177 1.538714,-14.982154 0.223361,-4.895192 -0.122477,-9.804771 0.07729,-14.704523 0.100827,-5.140079 0.339287,-10.282738 0.219568,-15.423874 -0.365336,-4.425306 -1.018642,-8.808852 -1.494272,-13.21969 -0.03367,-0.875415 -0.111928,-1.750251 -0.101002,-2.626245 0.04473,-3.586503 0.659564,-7.795531 2.335923,-10.996687 0.0495,-0.472119 6.726262,0.227872 6.676772,0.699991 z"
       inkscape:connector-curvature="0" />
    <path
       style="fill:#000000;fill-opacity:1;stroke:none"
       id="path4500"
       d="m 58.564471,233.6413 c -3.299854,-3.67093 -4.934598,-8.49377 -6.361819,-13.13434 -1.149177,-4.13135 -2.116954,-8.33746 -2.712162,-12.58684 -0.418974,-3.08964 -0.937384,-6.17678 -1.128221,-9.29298 -0.0991,-1.61819 -0.06716,-3.51014 -0.0619,-5.13093 0.04715,-5.20251 0.820985,-10.35246 1.580269,-15.48782 0.636626,-5.0386 1.718792,-9.9949 2.771692,-14.95691 1.029832,-4.95416 2.567553,-9.76512 4.205808,-14.54406 1.576731,-4.30066 2.540466,-8.77981 3.707158,-13.19815 1.036218,-4.26316 2.242961,-8.48026 3.318132,-12.73368 1.213572,-4.22642 1.441348,-8.64078 1.634884,-13.01002 0.244766,-4.88924 0.448794,-9.787722 0.379946,-14.683886 -0.202574,-5.007878 0.08977,-10.001723 0.436548,-14.994487 0.09526,-4.555871 0.507242,-9.096415 1.015091,-13.622235 0.05217,-0.719972 0.0868,-1.441431 0.156521,-2.159917 0.318535,-3.282817 0.204827,-0.743432 0.400027,-3.951913 0.136674,-2.246508 0.202534,-4.500615 0.284539,-6.7496 0.246547,-1.999186 0.19978,-4.016233 0.412258,-6.017946 0.13134,-1.237333 0.316709,-1.524858 0.247246,-2.748815 -0.03081,-0.542862 -0.13784,-1.078699 -0.206759,-1.618049 -0.287887,-3.34691 -0.222359,-6.70845 0.03602,-10.053819 0.09872,-1.044902 0.352711,-2.059809 0.647029,-3.063155 0.0066,-0.442443 6.263694,-0.348878 6.257078,0.09356 l 0,0 c 0.250084,0.995191 0.474245,1.997412 0.549668,3.024409 0.199821,3.259306 0.277497,6.525502 0.20793,9.790613 -0.03427,0.535641 -0.108813,1.070219 -0.102815,1.606921 0.01453,1.299864 0.252919,1.649094 0.405225,2.968653 0.247257,2.142207 0.116554,4.297189 0.139294,6.446669 -0.18474,2.269308 -0.488138,4.522586 -0.689615,6.788521 -0.125754,1.414299 -0.11816,2.778931 -0.255603,4.192309 -0.06956,0.715302 -0.185952,1.425275 -0.278928,2.137912 -0.379698,4.440398 -0.339164,8.900897 -0.560018,13.348912 -0.214181,4.847138 -0.600088,9.689925 -0.359509,14.544234 -0.01823,5.031291 0.01473,10.061079 -0.407629,15.080659 -0.261763,4.89666 -0.950426,9.74047 -2.119498,14.50807 -1.196462,4.14667 -2.335106,8.30808 -3.236078,12.531 -0.996323,4.68025 -2.165932,9.32611 -3.668348,13.87214 -1.499705,4.56668 -2.948383,9.14021 -3.960576,13.84632 -1.152402,4.74897 -1.847743,9.57541 -2.72651,14.37887 -0.683369,4.7854 -1.147422,9.59151 -1.491135,14.41237 0.04364,4.4653 0.06926,8.93304 0.443944,13.38607 0.208574,1.17062 0.316475,2.35953 0.568277,3.52163 0.564675,2.60605 1.726052,5.0828 2.532434,7.61295 1.85162,4.39718 3.896867,8.8554 4.455909,13.63696 0.142115,0.4572 -6.323693,2.467 -6.465808,2.0098 z"
       inkscape:connector-curvature="0" />
  </g>
  <g
     inkscape:groupmode="layer"
     id="layer3"
     inkscape:label="Layer#1">
    <path
       style="fill:#000000;fill-opacity:1;stroke:none"
       id="path4503"
       d="m 44.181096,17.874067 c -0.0088,3.855816 -0.928536,7.655204 -1.862677,11.377595 -0.679228,3.264105 -1.498033,6.494623 -2.26378,9.738805 -0.897263,3.992113 -1.631962,8.016918 -2.402832,12.035531 -0.650884,4.527946 -1.695354,8.980655 -2.513556,13.478642 -0.879121,4.582567 -1.825711,9.150344 -2.705581,13.733159 -1.007619,4.761851 -2.108197,9.497594 -3.004607,14.282734 -0.824475,4.553762 -1.649973,9.118197 -2.154274,13.720327 -0.559367,4.48752 -0.527457,9.01995 -0.524568,13.53469 0.0834,4.74405 0.315383,9.47946 0.660821,14.21074 0.334352,4.97576 0.898598,9.92698 1.46363,14.87992 0.579726,4.50658 1.233142,9.00389 1.789152,13.51346 0.694413,3.98378 1.537844,7.93907 2.541508,11.85719 0.59334,4.23615 1.941009,8.3107 2.716149,12.50554 0.116145,0.63956 0.251304,1.27596 0.348436,1.91869 0.205102,1.35718 0.181149,1.98502 0.429342,3.29882 0.391898,2.0745 0.298507,0.96172 0.833266,3.10626 0.132926,0.53307 0.214942,1.07757 0.322412,1.61635 0.946325,3.21306 1.291066,6.53919 1.799736,9.83581 0.496242,2.59445 0.869681,5.24058 0.977617,7.88287 0.04232,1.66584 0.337221,3.31149 0.425609,4.97554 0.28601,1.26151 0.439717,2.5363 0.80868,3.77734 0.283145,0.82795 0.25059,1.70641 0.3664,2.55823 0.0908,0.66788 0.280401,1.33526 0.380618,2.00575 0.12445,1.59328 0.507199,3.1429 0.679679,4.72967 0.09283,0.98839 0.03207,1.97824 -0.0495,2.96428 -0.01978,0.45187 -6.410269,0.1721 -6.390486,-0.27978 l 0,0 c 0.0026,-0.63588 -0.0453,-1.26664 -0.180232,-1.89022 -0.281913,-1.51766 -0.557727,-3.04313 -0.625878,-4.5876 -0.265932,-1.37863 -0.381159,-2.77755 -0.70916,-4.14438 -0.319067,-1.57894 -0.67416,-3.14753 -0.869243,-4.74981 -0.144081,-1.53772 -0.595206,-3.01641 -0.780755,-4.5519 -0.629844,-2.51551 -1.02954,-5.08193 -1.489973,-7.63209 -0.277224,-1.48914 -0.675332,-2.94022 -0.985143,-4.42054 -0.346488,-1.65558 -0.514975,-3.34776 -0.940345,-4.98821 -0.437611,-1.61829 -0.680844,-3.25654 -1.080611,-4.88234 -0.310171,-1.26143 -0.540073,-1.83483 -0.905657,-3.0926 -0.185096,-0.63682 -0.354654,-1.27805 -0.531981,-1.91707 -1.102099,-4.13027 -1.769824,-8.35684 -2.825208,-12.49914 -0.777358,-4.07877 -1.517336,-8.16348 -2.425879,-12.21617 -1.002716,-4.50756 -1.595495,-9.07485 -2.207429,-13.64984 -0.889365,-5.104 -1.5035,-10.2765 -1.691583,-15.45599 -0.261659,-4.84953 -0.214024,-9.70329 -0.379202,-14.55558 -0.03769,-1.14661 -0.133009,-3.67144 -0.119567,-4.80339 0.03801,-3.20067 0.430228,-6.38751 0.705256,-9.57245 0.449516,-4.80659 1.15936,-9.59289 1.943328,-14.354568 0.311306,-1.6818 0.616101,-3.44383 1.01128,-5.108379 0.728299,-3.067702 1.628219,-6.098797 2.168466,-9.211185 0.903009,-4.547618 1.874135,-9.076164 2.837741,-13.61044 0.822127,-4.578355 1.614364,-9.161528 2.500972,-13.727826 0.98174,-4.068901 1.812661,-8.181452 3.202262,-12.138686 0.852818,-3.087185 1.730172,-6.172303 1.888559,-9.392834 0.512213,-3.906283 1.05335,-8.113226 3.225533,-11.481181 0.09732,-0.466213 6.690571,0.910042 6.593255,1.376256 z"
       inkscape:connector-curvature="0" />
    <path
       style="fill:#000000;fill-opacity:1;stroke:none"
       id="path4505"
       d="m 230.73697,19.569696 c 1.32803,3.374467 2.0427,6.960284 2.84929,10.488856 0.83226,4.108415 1.46362,8.256064 2.22997,12.378272 0.88441,3.989396 1.34453,8.037974 1.88495,12.081461 0.29041,2.87883 0.77501,5.737334 0.93062,8.62982 0.081,1.506326 0.0944,3.015726 0.17133,4.522267 -0.0592,3.829054 0.21031,7.656929 0.0315,11.482224 -0.32094,4.43502 -0.34283,8.880371 -0.74684,13.309 -0.33096,4.441854 -0.58076,8.889684 -0.89038,13.333284 -0.17784,2.12573 0.0184,4.26464 -0.14615,6.3905 -0.0515,0.66537 -0.18801,1.32152 -0.26756,1.98413 -0.34721,2.89217 0.0112,0.74249 -0.46825,3.31894 -0.29814,1.91496 -0.0836,3.83489 -0.0104,5.75157 0.0695,1.82084 0.008,2.03225 -0.11318,3.82677 -0.34606,3.89166 -0.26461,7.80957 -0.14527,11.7104 0.2116,4.53441 0.15496,9.07426 0.17252,13.61223 -0.14708,4.93883 -0.49958,9.85974 -1.1565,14.757 -0.51073,4.56286 -1.36782,9.077 -1.92792,13.63144 -0.042,3.71556 -0.23614,7.42791 -0.31738,11.14261 0.24975,3.33546 0.37133,6.6695 0.0997,10.00618 -1.6e-4,1.58836 -0.34396,3.16154 -0.3628,4.7478 -0.005,0.39841 0.15682,2.09166 0.1854,2.41381 0.25146,3.35157 0.35813,6.72439 0.26574,10.08508 -0.0618,2.82514 -0.19028,5.64805 -0.33623,8.47021 -0.12875,2.31993 0.0347,4.63983 0.0488,6.96176 0.1059,2.14896 -0.13478,4.27912 -0.26418,6.41661 -0.0589,0.36484 -0.11785,0.72967 -0.17677,1.0945 -0.0542,0.46482 -6.62775,-0.30224 -6.57351,-0.76705 l 0,0 c 0.007,-0.10945 0.0142,-0.2189 0.0213,-0.32835 -0.12871,-2.13635 -0.36973,-4.2654 -0.26573,-6.41317 0.0122,-2.32515 0.17252,-4.64802 0.0484,-6.97125 -0.13903,-2.81725 -0.25676,-5.63515 -0.32346,-8.45485 -0.10139,-3.36231 -0.0179,-6.73802 0.21183,-10.09302 0.0214,-0.24608 0.1941,-2.14722 0.1951,-2.47715 0.005,-1.58541 -0.25955,-3.16705 -0.22702,-4.75449 -0.1978,-3.21179 -0.0743,-6.42495 -0.15188,-9.63961 -0.45405,-4.02767 -0.86275,-8.06337 -0.26126,-12.10823 0.0565,-0.77274 0.25188,-3.39713 0.29509,-4.17065 0.0438,-0.78466 0.0366,-1.57243 0.10553,-2.35529 0.21906,-2.48952 0.80386,-4.92854 1.00695,-7.42007 0.61739,-4.56269 1.23447,-9.13843 1.42801,-13.74223 -0.0229,-4.5383 -0.24094,-9.07206 -0.16054,-13.61054 0.0818,-4.07062 0.26339,-8.12887 0.66792,-12.1814 0.20444,-3.18962 0.48698,-6.37311 0.45876,-9.57416 -0.18843,-3.85644 0.10416,-7.71582 0.081,-11.57584 0.0974,-4.52879 0.55852,-9.040286 0.68244,-13.569152 0.27312,-4.401821 0.73072,-8.788837 1.37417,-13.15242 0.27122,-3.597849 -0.0523,-7.169367 -0.5619,-10.736016 -0.19942,-4.179169 -0.18335,-8.368442 -0.57913,-12.536892 -0.29775,-1.892735 -0.73989,-3.747545 -1.06492,-5.634763 -0.35912,-2.085221 -0.5779,-4.195815 -1.04791,-6.262157 -0.60927,-4.064125 -1.44348,-8.086241 -2.32073,-12.100548 -0.6713,-3.660441 -1.63924,-7.389378 -1.12657,-11.133222 -0.0554,-0.463018 6.49262,-1.247223 6.54807,-0.784204 z"
       inkscape:connector-curvature="0" />
    <path
       style="fill:#000000;fill-opacity:1;stroke:none"
       id="path4507"
       d="m 100.38127,21.355536 c 0.33718,0.46769 0.72432,0.903137 1.01153,1.403069 0.62862,1.094184 1.41935,3.140916 1.83849,4.293065 0.93703,2.575722 1.65389,5.199524 2.34535,7.848801 0.88654,4.723778 1.46036,9.498099 1.91193,14.280736 0.33799,3.160378 0.82839,6.310264 0.77833,9.498558 -0.0228,1.452369 -0.14268,2.901883 -0.17826,4.353995 -0.24414,2.886131 -0.0184,5.782109 -0.21719,8.67061 -0.15497,2.252272 -0.27433,2.72031 -0.61521,4.912017 -0.89695,4.607971 -1.86356,9.20502 -2.86852,13.791323 -1.11666,4.743516 -2.31526,9.464599 -3.42102,14.21064 -1.170155,4.65621 -1.923535,9.40109 -2.897895,14.09954 -1.19613,4.18401 -2.11133,8.43504 -3.069517,12.67752 -1.19931,3.9933 -1.9564,8.08792 -2.876052,12.14715 -1.023413,4.71562 -2.544804,9.30919 -4.0688,13.88247 -1.42939,4.31128 -3.11522,8.52286 -4.56354,12.82819 -1.351932,4.19102 -2.221719,8.516 -3.581183,12.70338 -1.295645,4.29131 -2.11053,8.71467 -3.100713,13.08465 -0.980272,3.0442 -1.506824,6.21176 -2.356774,9.28819 -0.379269,1.37279 -0.801037,2.41178 -1.296943,3.73053 -0.814505,2.0647 -1.788806,4.05558 -2.28156,6.22832 -0.199473,1.55548 -0.593868,3.06763 -0.791012,4.62588 -0.01327,0.16222 -0.05828,0.32495 -0.03981,0.48667 0.0075,0.0661 0.08615,0.10338 0.114108,0.16375 0.09075,0.19595 0.170271,0.39734 0.240348,0.6016 0.188569,0.54963 0.348366,1.07565 0.559308,1.61542 0.415324,1.32187 0.751403,2.68494 1.012776,4.04816 0.21929,1.32852 0.371095,2.73687 0.119375,4.07418 0.04257,0.45905 -6.449372,1.06105 -6.49194,0.602 l 0,0 c -0.251355,-1.31221 -0.269035,-2.63354 -0.164089,-3.9675 -0.03231,-0.84855 0.0029,-1.63774 -0.56186,-2.32786 -0.957572,-1.75783 -1.340278,-3.53188 -1.418702,-5.53328 -0.0216,-1.94869 0.298094,-3.86348 0.699572,-5.76703 0.550526,-2.12449 0.998773,-4.26377 1.267204,-6.44209 0.119297,-1.02952 0.32413,-2.94675 0.517033,-3.89274 0.634469,-3.11139 1.75954,-6.119 2.310844,-9.25247 1.121251,-4.4162 2.383764,-8.7911 3.57715,-13.18658 0.952111,-4.45923 2.1211,-8.87472 3.673845,-13.16583 0.271025,-0.77157 1.100158,-3.10396 1.346548,-3.91343 0.92048,-3.02404 1.563552,-6.13503 2.782903,-9.0666 0.831032,-2.28564 1.602321,-4.58973 2.41873,-6.88056 0.338486,-0.94979 1.113005,-3.06099 1.405452,-4.06279 0.196703,-0.67382 0.343457,-1.36122 0.515185,-2.04183 0.912916,-4.06949 1.811893,-8.14088 2.854382,-12.17849 0.972256,-4.1686 1.843805,-8.36214 2.808787,-12.53161 0.938759,-4.80805 1.488813,-9.69041 2.695378,-14.44306 1.200108,-4.682304 2.524918,-9.332834 3.635457,-14.038323 1.025811,-4.389727 1.98015,-8.799941 2.811261,-13.229768 0.56161,-4.191278 1.18089,-8.388533 1.063159,-12.63283 -0.006,-3.431113 0.0533,-0.555543 -0.173079,-4.021564 -0.19742,-3.022304 -0.14289,-6.061126 -0.524451,-9.070627 -0.43859,-4.418551 -1.18938,-8.794486 -2.40192,-13.072156 -0.63117,-2.524263 -1.25887,-5.048991 -1.851309,-7.582702 -0.29252,-1.250999 -0.70186,-2.903029 -0.86521,-4.20209 -0.0682,-0.542424 -0.0691,-1.091203 -0.1037,-1.636804 -0.14212,-0.457202 6.323704,-2.467002 6.465824,-2.0098 z"
       inkscape:connector-curvature="0" />
    <path
       style="fill:#000000;fill-opacity:1;stroke:none"
       id="path4515"
       d="m 61.32153,33.907386 c 2.44403,4.811056 3.068168,10.23166 3.583079,15.52866 0.289013,4.803705 0.393704,9.614749 0.553526,14.424145 0.188221,4.648128 0.424475,9.292518 0.553121,13.942961 -0.0072,3.899456 -0.02519,7.793919 0.164505,11.690953 0.408281,4.338325 0.570571,8.687925 0.601523,13.043475 0.03799,5.17709 -0.225002,10.34667 -0.568983,15.51006 -0.244438,4.41481 -0.739326,8.80803 -0.913126,13.22682 0.02838,3.65086 -0.413257,7.32196 -0.134417,10.96592 0.154298,3.30041 0.938279,6.4965 1.621792,9.71396 0.56,3.78578 1.088567,7.56621 1.693027,11.34375 0.616501,3.5301 1.792925,6.93578 3.009968,10.29674 0.767565,2.69995 2.003214,5.24331 2.890157,7.89809 0.421288,1.261 0.708679,2.56286 1.070104,3.8423 0.89263,3.36046 1.659054,6.76311 3.03133,9.96624 1.02601,2.80468 1.697016,5.70673 2.619569,8.54512 0.914557,1.82068 1.095157,3.82355 1.49369,5.7818 0.08477,0.41654 0.201201,0.826 0.301802,1.23901 0.09009,0.44896 0.180179,0.89793 0.270269,1.34689 0.730938,2.81841 1.650328,5.5929 2.256392,8.44297 0.41234,2.00743 0.663297,4.03083 0.9092,6.06186 0.340909,2.28465 1.227637,4.44625 1.789202,6.68233 0.07252,0.41514 0.145045,0.83028 0.217568,1.24543 0.113588,0.50146 -6.978228,2.10785 -7.091817,1.60638 l 0,0 c -0.147372,-0.39455 -0.294745,-0.7891 -0.442117,-1.18365 -0.718103,-2.44441 -0.938058,-4.83385 -1.076718,-7.36284 -0.422723,-1.77701 -0.789745,-3.56957 -1.523576,-5.2563 -1.10654,-2.88474 -1.676532,-5.92409 -2.269616,-8.94896 -0.585452,-2.58901 -1.165926,-5.18356 -1.920788,-7.72856 -0.274074,-0.83378 -0.51132,-1.67982 -0.80383,-2.50731 -0.685365,-1.93884 -1.765102,-3.7252 -2.424298,-5.67868 -1.020145,-3.39769 -1.960314,-6.82041 -3.07288,-10.18931 -2.160582,-5.93481 1.109067,2.92721 -1.392934,-3.43175 -1.055081,-2.68153 -1.80247,-5.4702 -2.712179,-8.20048 -1.121708,-3.71995 -2.282213,-7.42245 -2.904377,-11.26938 -0.378187,-1.80752 -0.867049,-3.61629 -1.191869,-5.43199 -0.355459,-1.98696 -0.472611,-4.01881 -0.706647,-6.02111 -0.377793,-3.44071 -1.001447,-6.84158 -1.412408,-10.27673 -0.328959,-3.92465 -0.576737,-7.86762 -0.363642,-11.80613 0.106192,-2.08392 0.242081,-4.16966 0.285394,-6.25621 0.08059,-3.88224 -0.03823,-0.2451 -0.05746,-4.48113 -0.0039,-0.86312 0.03194,-1.72596 0.04792,-2.58895 0.224834,-5.06879 0.848976,-10.10967 0.805517,-15.18979 0.137917,-4.15413 0.426746,-8.31701 0.200684,-12.472165 -0.117616,-1.232904 -0.328918,-2.456629 -0.417841,-3.691933 -0.157767,-2.191688 0.0435,-1.984058 -0.0474,-4.083237 -0.02776,-0.640929 -0.12221,-1.277419 -0.164094,-1.91758 -0.04639,-0.709069 -0.06712,-1.419584 -0.100684,-2.129377 C 57.247734,73.490882 56.885237,68.835748 57.0644,64.15932 56.823042,59.517527 56.52441,54.8591 55.771481,50.269241 55.163409,45.266148 53.955636,40.217425 54.585062,35.158861 c -0.08849,-0.476341 6.64798,-1.727815 6.736473,-1.251475 z"
       inkscape:connector-curvature="0" />
    <path
       style="fill:#000000;fill-opacity:1;stroke:none"
       id="path4517"
       d="m 133.49171,29.160903 c 1.12623,3.695513 1.47498,7.575705 1.5539,11.421888 0.25999,4.059416 -0.46503,8.070501 -0.80728,12.098249 -0.39379,4.281093 -0.90357,8.552613 -1.60186,12.795339 -0.9014,4.404292 -1.92354,8.776422 -2.67053,13.211256 -0.8094,4.672066 -1.74617,9.321251 -2.64442,13.977216 -0.8062,4.473175 -1.75781,8.943809 -2.24076,13.467199 -0.51033,4.70466 -0.65854,9.43846 -0.93166,14.16234 -0.25133,4.7736 -0.57924,9.54542 -0.94204,14.3122 -0.41332,4.61542 -0.39603,9.24776 -0.50838,13.87515 -0.18746,4.8085 -0.51124,9.61531 -0.98865,14.40398 -0.50146,4.95393 -1.01519,9.90867 -1.90732,14.8095 -0.36445,2.69758 -1.03111,5.35871 -1.24609,8.07627 -0.12275,1.55165 -0.0813,2.23982 -0.0672,3.80721 -0.12021,2.20094 -0.18119,4.42655 -0.0295,6.62797 0.0194,0.28177 0.38734,2.89021 0.41471,3.08715 0.41176,2.94056 1.54049,5.72568 2.23167,8.60153 0.15637,0.65065 0.24405,1.31592 0.36607,1.97388 0.11592,0.59387 0.25577,1.18357 0.34775,1.78163 0.29218,1.89974 0.0122,1.10647 0.37594,2.8378 0.30669,1.4598 0.75556,2.80562 1.32496,4.18214 1.08382,3.50153 1.90591,7.07885 2.47659,10.69796 0.32959,2.35457 0.95719,4.63156 0.9595,7.01933 -0.0428,1.24615 0.22086,2.46158 0.27047,3.70358 0.005,0.4572 -6.46042,0.5338 -6.46584,0.0766 l 0,0 c 0.0107,-0.37381 0.0664,-0.82033 -0.0164,-1.19061 -0.15821,-0.70767 -0.52948,-1.37034 -0.59839,-2.1033 -0.42829,-2.03747 -0.76312,-4.09964 -1.54287,-6.0433 -1.13581,-3.45574 -2.33969,-6.9076 -2.77511,-10.53976 -0.0626,-0.59154 -0.0966,-1.18683 -0.18794,-1.77463 -0.38217,-2.46013 -1.63141,-4.68585 -2.16407,-7.10458 -1.03674,-3.72177 -1.55993,-7.56975 -2.35058,-11.34964 -0.34812,-3.52693 -0.60883,-7.05959 -0.91331,-10.59006 0.1561,-4.28208 0.60188,-8.53172 1.12545,-12.78262 0.48231,-4.87021 1.1108,-9.72191 1.65287,-14.58446 0.52269,-4.58164 1.14614,-9.16022 1.22593,-13.7774 0.0433,-2.32646 0.0641,-2.08405 7.5e-4,-4.48595 -0.0209,-0.79332 -0.091,-1.58569 -0.0853,-2.37927 0.0179,-2.4961 0.2848,-4.99475 0.43987,-7.48358 0.15026,-1.54589 0.3503,-3.08737 0.46348,-4.63642 0.22929,-3.13818 0.24933,-6.29536 0.36322,-9.43843 0.23639,-4.86596 0.68474,-9.7201 1.2969,-14.55332 0.5413,-4.70994 0.98271,-9.438456 2.11365,-14.056759 0.8872,-4.624038 1.79654,-9.240214 2.74774,-13.851227 0.81838,-4.428454 1.7515,-8.835057 2.72657,-13.23074 0.80399,-4.047529 1.3545,-8.133499 1.94019,-12.216295 0.43444,-3.682206 0.87764,-7.352911 0.46761,-11.065141 -0.24844,-3.096355 -0.12419,-1.127144 -0.23995,-4.321035 -0.09,-2.483192 -0.34917,-5.047215 0.45328,-7.44883 0,-0.465726 6.58636,-0.465726 6.58636,0 z"
       inkscape:connector-curvature="0" />
    <path
       style="fill:#000000;fill-opacity:1;stroke:none"
       id="path4519"
       d="m 192.16983,22.068827 c 1.52918,2.104877 2.72088,4.486291 3.56269,6.949005 0.43924,1.285016 0.85612,3.144561 1.17608,4.473408 0.66475,3.519022 0.88583,7.104181 1.60389,10.612151 0.79135,3.267955 2.20821,6.313119 3.67923,9.317119 1.92391,3.966638 3.45893,8.114062 4.80351,12.308704 0.20304,0.697946 0.43583,1.387917 0.60912,2.093838 0.45826,1.866765 0.72192,3.788901 1.12855,5.667811 0.3116,1.439772 0.53543,2.206437 0.91896,3.642549 1.00255,3.844915 2.07807,7.670544 2.90895,11.55765 1.21674,4.556915 1.54907,9.238274 1.86218,13.920608 0.2081,2.88287 0.69409,5.74869 0.69695,8.64484 10e-4,1.41806 -0.10846,2.83405 -0.1595,4.25119 -0.24088,3.64421 0.073,7.30702 -0.10448,10.95086 -0.0385,0.79025 -0.14456,1.57575 -0.21684,2.36362 -0.0666,0.74655 -0.12491,1.49389 -0.19983,2.23965 -0.15177,1.51077 -0.37503,3.01419 -0.50675,4.52684 -0.20228,2.32295 -0.24487,4.66429 -0.3904,6.99146 -0.0546,0.80686 -0.12302,1.61289 -0.16381,2.42056 -0.12803,2.53526 -0.21111,5.06237 -0.45948,7.59134 -0.13373,1.36171 -0.42622,3.59703 -0.60047,4.9722 -0.10138,0.83607 -0.16312,1.67792 -0.30415,2.50823 -0.22971,1.35241 -0.6057,2.67713 -0.83863,4.02898 -0.33066,1.91904 -0.51516,3.84496 -0.71294,5.78091 -0.46761,4.4263 -0.98642,8.84066 -1.62433,13.2456 -0.70183,3.41476 -0.99085,6.88988 -1.53853,10.32757 -0.27767,1.74284 -0.63212,3.4726 -0.93781,5.21074 -0.88248,3.76483 -1.3546,7.60199 -1.66478,11.45073 0.0445,3.05835 -0.41747,6.09215 -0.6385,9.13542 -0.31905,2.84028 0.002,5.6808 0.11711,8.5188 0.0646,1.58362 -0.0452,3.17269 -0.0183,4.75526 0.0212,1.24555 0.18205,2.4892 0.21887,3.73591 -0.007,1.10873 -0.002,2.21045 -0.091,3.31623 0.007,0.45294 -6.39803,0.55796 -6.40546,0.10503 l 0,0 c -0.18156,-0.88727 -0.4058,-1.76753 -0.68308,-2.62985 -0.67346,-3.00835 -0.70204,-6.07805 -0.78226,-9.1485 -0.002,-3.03754 0.13195,-6.07632 0.21974,-9.1128 0.13662,-1.82428 0.33016,-3.68309 0.27886,-5.51397 -0.0156,-0.55551 -0.0935,-1.10866 -0.0966,-1.66438 -0.003,-0.6154 0.0512,-1.22975 0.0769,-1.84462 0.11243,-4.04944 0.28749,-8.09919 0.61566,-12.13677 0.23793,-2.25779 0.30004,-3.17584 0.67764,-5.4251 0.57598,-3.43093 1.63736,-6.75219 2.08535,-10.20912 0.73332,-4.32399 1.57849,-8.63244 2.06784,-12.99425 0.29974,-1.90946 0.57903,-3.82658 0.75256,-5.75268 0.12408,-1.37728 0.12176,-2.76468 0.26535,-4.14006 0.082,-0.78539 0.22551,-1.56314 0.33826,-2.34471 0.45856,-4.90282 0.83719,-9.8112 1.17137,-14.72429 0.39135,-4.57737 0.95702,-9.13684 1.24927,-13.72082 0.3186,-6.79495 -0.15019,2.37695 0.32939,-4.50202 0.19515,-2.79926 0.20531,-5.61488 0.32421,-8.41766 -0.0322,-4.85842 0.0336,0.99405 -0.10967,-3.96734 -0.0785,-2.72053 0.084,-5.45164 -0.36089,-8.15286 -0.28491,-2.12078 -0.18748,-1.6763 -0.64361,-3.858922 -0.16139,-0.772221 -0.38055,-1.532984 -0.50845,-2.311452 -0.38712,-2.356296 -0.46911,-4.767941 -0.78776,-7.133494 -0.60584,-3.859003 -1.62386,-7.617673 -2.67639,-11.374801 -0.41036,-2.337056 -0.80287,-4.70223 -1.53236,-6.967358 -0.18222,-0.565801 -0.41881,-1.112684 -0.61916,-1.672322 -0.23858,-0.666425 -0.46505,-1.337123 -0.69758,-2.005684 -1.31373,-3.901257 -2.40219,-7.905226 -4.19746,-11.620484 -1.59005,-3.529328 -2.95363,-7.16253 -3.72944,-10.967062 -0.6517,-3.35464 -1.16966,-6.741541 -2.14632,-10.02453 -1.08834,-3.532019 -2.3678,-7.079647 -2.65228,-10.789357 -0.1759,-0.428567 5.88496,-2.916114 6.06085,-2.487547 z"
       inkscape:connector-curvature="0" />
    <path
       style="fill:#000000;fill-opacity:1;stroke:none"
       id="path4523"
       d="m 165.83338,25.44329 c 0.36053,0.374867 0.76529,0.711722 1.08157,1.1246 2.295,2.995953 3.52439,6.782802 4.44158,10.384217 0.69732,3.309376 1.06319,6.677095 1.92719,9.950311 0.51768,2.342226 1.35132,4.586526 2.15218,6.841701 1.44016,3.154017 2.36761,6.467461 3.23517,9.813224 0.95453,3.644652 1.63483,7.356111 2.34905,11.053874 0.3297,2.800974 0.44427,5.620938 0.91404,8.402671 0.66812,3.550673 1.15039,7.128656 1.67444,10.703034 0.55055,4.202129 0.86676,8.410378 0.95949,12.646098 0.12671,3.53965 -0.49088,7.02565 -0.64108,10.55134 0.18516,3.83305 0.4072,7.64221 0.20134,11.47865 -0.34116,2.22033 -0.48171,4.48331 -0.93992,6.68605 -0.13518,0.64985 -0.34689,1.28143 -0.51241,1.92422 -0.5396,2.09548 -0.40121,1.54081 -0.79241,3.58115 -0.607,4.18517 -1.60001,8.29979 -2.44822,12.43914 -0.76744,2.88212 -1.25981,5.84036 -2.06446,8.71261 -0.37438,1.33638 -0.83148,2.64864 -1.20632,3.98489 -1.03215,3.8708 -1.89369,7.79132 -2.55223,11.74316 -0.27542,2.85224 -1.20597,5.56149 -1.88929,8.3231 -0.32744,1.32336 -0.41209,2.07354 -0.62366,3.43323 -0.61074,3.35537 -0.85502,6.79376 -1.76434,10.08592 -0.79338,3.08265 -0.76047,6.32941 -0.72101,9.49446 0.26813,3.78385 -0.48821,7.50108 -0.77633,11.25555 -0.0157,0.47626 -0.0596,0.95242 -0.0471,1.42877 0.0305,1.15939 0.19746,2.31208 0.24,3.47109 0.0664,1.80825 0.0352,3.62665 0.04,5.4359 0.0866,1.65334 -0.13173,3.30229 -0.11054,4.95453 0.0168,1.3107 0.1694,2.63507 0.25897,3.94259 0.0423,1.35865 -0.16147,2.70234 0.0905,4.04533 0.0995,0.43684 -6.07833,1.84377 -6.17782,1.40694 l 0,0 c -0.53514,-1.5449 -0.83098,-3.15088 -1.25072,-4.72876 -0.51512,-3.15225 -0.66616,-6.32935 -0.71767,-9.52109 -0.0499,-1.82032 -0.15013,-3.65176 -0.12851,-5.47289 0.0345,-2.90962 0.0933,-0.85921 0.20738,-3.64526 0.0211,-0.5153 0.004,-1.03147 0.005,-1.54721 -0.008,-3.77703 -0.15413,-7.54953 0.10984,-11.32153 0.1341,-1.46231 0.22867,-2.76048 0.45325,-4.20823 0.32236,-2.07802 0.88197,-4.1173 1.11159,-6.21137 0.33336,-3.3465 0.90012,-6.66303 1.2776,-10.00556 0.74977,-3.97386 1.17635,-8.00098 2.14017,-11.93381 0.86433,-4.05648 1.91363,-8.06466 2.78255,-12.11934 0.94886,-4.17403 2.17029,-8.27981 2.99591,-12.48197 0.0323,-0.14667 0.94364,-4.29175 0.97902,-4.43266 0.65171,-2.59548 1.47238,-5.15112 1.92141,-7.79691 0.037,-0.19076 0.64282,-3.29811 0.68616,-3.5884 0.0916,-0.61351 0.11548,-1.23596 0.20961,-1.84909 0.30298,-1.97364 0.77723,-3.92628 0.88419,-5.92968 0.27767,-3.72685 0.46049,-7.45315 0.62027,-11.18741 0.024,-3.42996 -0.18548,-6.85063 -0.10001,-10.28008 -0.0458,-3.99277 -0.4436,-7.960199 -0.81661,-11.933401 -0.35028,-3.62867 -0.90163,-7.244532 -1.0093,-10.893048 -0.0379,-0.8758 0.002,-1.757569 -0.10389,-2.627808 -0.0469,-0.386205 -0.16947,-0.759662 -0.23695,-1.142801 -0.23268,-1.321012 -0.36104,-2.660739 -0.86442,-3.921345 -0.81307,-3.619613 -1.73555,-7.212908 -2.60018,-10.820484 -0.67867,-3.141677 -1.23837,-6.309883 -2.04705,-9.422444 -0.88025,-2.557572 -2.50387,-4.800408 -2.97567,-7.512603 -0.47126,-3.170608 -1.28124,-6.235529 -2.32485,-9.267905 -1.24387,-3.534071 -2.71651,-7.008474 -3.59193,-10.659588 -0.20051,-0.43028 5.88457,-3.265953 6.08508,-2.835673 z"
       inkscape:connector-curvature="0" />
    <path
       style="fill:#000000;fill-opacity:1;stroke:none"
       id="path4531"
       d="m 144.56045,12.219577 c 2.81574,3.201291 4.26317,6.862913 5.30703,10.940999 0.88892,3.903952 1.35605,7.896686 1.65385,11.886046 0.30834,3.644831 0.62607,7.281519 1.25392,10.887124 0.31634,2.74622 0.86327,5.484315 1.05659,8.244705 0.0524,0.748059 0.0263,2.927488 0.0218,3.713023 -0.20123,2.204569 0.24801,4.389756 0.37426,6.580889 0.0669,1.161971 0.0408,2.327636 0.0873,3.490606 0.0126,3.86757 0.246,7.717417 0.57229,11.569605 0.64082,4.444952 0.98999,8.918095 1.09192,13.405727 -0.0272,4.438106 -0.15142,8.888889 -0.49331,13.314909 -0.0218,0.62197 -0.0656,1.24355 -0.0653,1.8659 0.003,6.67751 0.17312,-3.21735 0.0579,4.25896 -0.0364,2.35869 -0.15067,4.7169 -0.24119,7.0739 -0.0262,0.79372 -0.0187,1.58928 -0.0786,2.38117 -0.11301,1.49311 -0.37129,2.97184 -0.52856,4.46094 -0.22713,2.15059 -0.34548,4.31101 -0.49666,6.46776 -0.50704,4.94621 -0.9926,9.89498 -1.53804,14.83708 -0.99323,9.41153 0.44127,-4.56388 -0.38254,4.75747 -0.061,0.69021 -0.19228,1.37277 -0.26117,2.06224 -0.19102,1.91171 -0.2455,3.84483 -0.32637,5.76333 -0.12436,4.31928 -0.49329,8.62866 -0.789,12.94004 -0.58896,3.6333 -1.16166,7.27898 -1.27637,10.96252 0.0682,4.02734 0.12436,8.03287 -0.18055,12.05344 -0.0484,1.75868 -0.26559,3.51218 -0.49838,5.25476 -0.0545,0.40828 -0.16596,0.80857 -0.20469,1.21866 -0.0831,0.8796 -0.0398,1.76661 -0.0678,2.64969 -0.0315,3.28568 -0.35688,6.5772 -0.80242,9.83344 -0.26677,1.7632 -0.48803,3.53206 -0.74243,5.29706 -0.0695,0.55724 -0.98124,3.61645 -0.98124,3.61645 l -2.01231,-6.03691 -2.02946,-5.37451 c 0,0 -1.14765,-2.10119 -0.96311,-3.66846 0.11887,-1.00952 -0.14879,-1.59832 -0.0177,-2.60633 0.0623,-0.47892 0.16562,-0.9516 0.24843,-1.4274 0.29765,-3.04238 -0.50788,-6.0847 -0.0937,-9.13795 0.13976,-4.02764 0.24768,-8.05013 0.36129,-12.07792 0.32236,-3.7166 0.81691,-7.42312 0.77722,-11.16169 0.43116,-4.21498 0.82867,-8.43547 1.23872,-12.65095 0.0739,-1.4278 0.14207,-2.21127 0.10812,-3.63497 -0.011,-0.45966 -0.21516,-3.94504 -0.21046,-4.31651 0.003,-0.23267 0.32006,-4.7751 0.33888,-5.04745 0.0511,-0.57743 0.40799,-4.64393 0.46461,-5.1464 0.36395,-3.23012 1.01511,-6.42215 1.40431,-9.64945 0.17833,-1.42606 0.4141,-2.84563 0.54741,-4.2766 0.27033,-2.90152 0.13294,-5.82218 0.33232,-8.72685 0.28863,-4.31202 0.89642,-8.61524 0.76477,-12.94353 -0.16535,-4.36186 0.0979,-8.729701 0.1418,-13.092802 -0.005,-2.135669 -0.0388,-4.255667 -0.22213,-6.385115 -0.32328,-3.756148 -0.1009,-0.490976 -0.48457,-4.329946 -0.0772,-0.772267 -0.1236,-1.547298 -0.1854,-2.320946 -0.0691,-1.423663 -0.17499,-2.845856 -0.21397,-4.270663 -0.0538,-1.965074 0.0801,-3.915479 0.11493,-5.878014 0.01,-0.564043 -0.005,-1.128254 -0.007,-1.692381 -0.10819,-6.18337 0.0856,2.837695 -0.1659,-3.329349 -0.0889,-2.17978 0.005,-4.372974 -0.23499,-6.547335 -0.14965,-1.123615 -0.3665,-2.2377 -0.51136,-3.361942 -0.34418,-2.671139 -0.46365,-5.36981 -0.8529,-8.035864 -0.41172,-3.773149 -0.79588,-7.548702 -1.26786,-11.314941 -0.2762,-3.520264 -0.30185,-7.097168 -1.59574,-10.437909 -0.41347,-1.215546 -0.80066,-2.440049 -1.22492,-3.651868 -0.60954,-1.740988 -1.35363,-3.45144 -1.87786,-5.221748 -0.11642,-0.393125 -0.18563,-0.798712 -0.27844,-1.198067 -0.20051,-0.430281 5.88457,-3.265954 6.08508,-2.835673 z"
       inkscape:connector-curvature="0"
       sodipodi:nodetypes="cccccccccccccccsccssccccccccccccccccccccccscscccccccccscscccscccc" />
    <path
       style="fill:#000000;fill-opacity:1;stroke:none"
       id="path4575"
       d="m 213.6588,40.56273 c 0.148,0.416886 0.34294,0.819979 0.44399,1.250659 0.26211,1.117082 0.36066,2.75389 0.41592,3.872155 0.11951,2.418606 0.037,4.767497 -0.16432,7.178019 -0.42438,4.328676 -1.15582,8.616713 -1.56093,12.947489 -0.47195,4.459266 -0.9496,8.918198 -1.51813,13.366345 -0.64331,4.82002 -2.03643,9.486772 -3.10566,14.219401 -0.86351,4.49316 -2.16401,8.881682 -3.19099,13.336352 -1.22578,4.51254 -2.30529,9.0645 -3.57624,13.56442 -1.06176,4.01708 -2.39032,7.95487 -3.59535,11.92893 -1.34671,4.09099 -2.25049,8.30779 -3.20364,12.50256 -0.87052,4.38469 -1.45476,8.82672 -2.55808,13.1619 -0.81672,3.68637 -1.35567,7.42806 -1.83416,11.1712 -0.6011,3.77014 -1.19895,7.53746 -1.61164,11.33305 -0.67051,3.52093 -0.87577,7.10654 -1.12725,10.67586 -0.26844,2.81278 -0.46065,5.64976 -0.94808,8.4369 -0.20639,1.18011 -0.50249,2.34284 -0.73846,3.51739 -0.7105,3.02748 -0.86702,6.13966 -1.23299,9.21806 -0.40791,3.6939 -0.91065,7.37099 -1.49588,11.03981 -0.32166,1.57956 -0.60912,3.19111 -1.31911,4.65089 -0.0867,0.24397 -3.537,-0.98272 -3.45026,-1.22669 l 0,0 c 0.0171,-0.1263 -0.0732,-0.33338 -0.0907,-0.43638 -0.19815,-1.16819 -0.24582,-2.34657 -0.15653,-3.52992 0.36843,-3.72071 0.83855,-7.41714 1.5742,-11.08458 0.50976,-3.05962 0.82183,-6.1437 1.20892,-9.22033 0.33813,-3.95061 0.98649,-7.85708 1.40243,-11.79956 0.46033,-3.59731 0.8751,-7.20232 1.22838,-10.81203 0.59178,-3.77677 0.79045,-7.59672 1.47995,-11.35967 0.19385,-1.36497 0.32529,-2.73937 0.56,-4.09791 0.42288,-2.44766 1.25281,-4.81596 1.49803,-7.29802 0.58286,-4.50764 0.99251,-9.04033 2.05149,-13.47361 1.11038,-4.25621 2.35013,-8.47256 3.69697,-12.66011 1.20786,-3.90845 2.25849,-7.86253 3.25245,-11.8304 1.11407,-4.52957 2.34914,-9.02736 3.54142,-13.53672 1.22824,-4.35218 2.24769,-8.750487 3.11774,-13.188717 0.99484,-4.620012 2.31687,-9.165551 3.0603,-13.837405 0.63806,-4.404128 1.25402,-8.814548 1.71222,-13.241188 0.56775,-4.256931 0.94838,-8.538446 1.33623,-12.815098 0.2923,-3.791273 0.48176,-7.592806 0.93668,-11.370004 -0.0391,-0.280088 3.92194,-0.833137 3.96104,-0.553048 z"
       inkscape:connector-curvature="0" />
    <path
       style="fill:#000000;fill-opacity:1;stroke:none"
       id="path4581"
       d="m 83.721444,61.260716 c 1.628491,4.210838 2.08513,8.73503 2.546133,13.190575 0.523622,4.808064 0.855283,9.63806 1.110511,14.467549 0.459136,4.158452 0.529773,8.325252 0.467067,12.50169 0.08975,4.0584 0.327468,8.11327 0.509792,12.16924 0.08528,1.80481 -0.07658,3.60588 -0.11348,5.40538 -0.03138,1.53027 0.182031,3.07625 0.353628,4.59206 0.6721,3.93958 1.262749,7.88831 1.834677,11.8434 0.659517,4.65285 1.606935,9.25097 2.479077,13.86561 0.902188,4.71872 1.781224,9.44553 2.495303,14.19663 0.257739,2.40845 0.784025,4.77684 1.155619,7.16654 0.306294,1.96975 0.526361,3.66856 0.985131,5.62092 1.224259,3.9287 2.248375,7.90177 2.988238,11.95107 0.13013,0.76345 0.29136,1.52224 0.39037,2.29033 0.16488,1.2791 0.21176,2.57084 0.34404,3.85371 0.17494,1.69659 0.41417,3.38335 0.62936,5.07505 0.0863,0.52708 0.15359,1.05763 0.25887,1.58125 0.1121,0.55751 0.27642,1.10355 0.39288,1.66017 0.43341,2.07154 0.69998,4.16151 1.185,6.22442 0.7435,2.98211 0.92234,6.05289 1.30156,9.08892 0.26242,2.22224 0.36561,4.47899 0.80273,6.67609 0.33642,1.61288 0.59753,3.24542 0.83262,4.87693 0.0221,0.22167 0.0443,0.44334 0.0665,0.66501 0.0361,0.27968 -3.91913,0.7909 -3.95528,0.51122 l 0,0 c -0.0377,-0.16641 -0.0754,-0.33282 -0.1131,-0.49924 -0.41975,-1.57747 -0.6923,-3.17588 -1.08244,-4.75982 -0.55695,-2.29618 -0.95422,-4.61925 -1.22255,-6.96728 -0.383323,-2.912 -0.876953,-5.80844 -1.448336,-8.68949 -0.697037,-3.26002 -1.452947,-6.50769 -1.949187,-9.80474 -0.536792,-3.68469 -1.274967,-7.32457 -1.862327,-10.999 -0.634578,-3.94081 -1.361258,-7.88124 -2.587867,-11.68714 -0.507483,-1.92815 -1.12163,-3.85246 -1.56556,-5.79501 -0.554028,-2.42432 -0.832669,-4.90628 -1.197942,-7.36225 -0.6348,-4.68842 -1.433264,-9.34778 -2.430803,-13.97355 -0.923768,-4.70518 -1.804414,-9.41251 -2.295946,-14.18764 -0.447704,-4.03624 -1.100757,-8.04345 -1.400485,-12.09518 -0.147854,-3.37854 -0.444513,-6.74958 -0.554162,-10.12954 -0.17644,-4.11996 -0.690449,-8.23894 -0.372461,-12.36508 -0.06263,-4.080108 -0.451768,-8.145975 -0.773542,-12.212152 -0.351208,-4.766586 -0.966624,-9.508255 -1.569433,-14.248426 -0.267601,-2.645128 -0.530589,-5.267189 -0.633175,-7.924588 -0.0242,-0.626753 -0.129139,-3.287955 -0.10018,-4.043052 0.01515,-0.394914 0.0921,-0.785025 0.138151,-1.177537 -0.03911,-0.280089 3.921943,-0.833137 3.961049,-0.553049 z"
       inkscape:connector-curvature="0" />
    <path
       style="fill:#000000;fill-opacity:1;stroke:none"
       id="path4585"
       d="m 51.121225,49.232548 c 1.95381,4.321051 2.734782,9.0382 3.268172,13.714503 0.549302,4.797937 0.530211,9.647382 0.204159,14.459568 -0.400136,4.907888 -1.017458,9.792606 -1.465244,14.69618 -0.342266,5.033131 -1.036391,10.028871 -1.56778,15.042321 -0.430674,4.85707 -0.992963,9.69512 -1.702203,14.52024 -0.712169,5.09472 -1.654703,10.14499 -2.874292,15.14163 -1.032566,4.59637 -1.894845,9.23117 -2.760536,13.8619 -0.906777,4.63979 -1.560204,9.32233 -2.449175,13.96496 -0.133388,0.7446 -0.257194,1.49097 -0.400164,2.23379 -0.663303,3.44624 -0.256788,0.91404 -0.806661,4.24799 -0.329887,2.00015 -0.555524,4.00998 -0.874456,6.01158 -0.519041,3.37871 -0.863829,6.77575 -1.189953,10.17751 -0.494088,2.96364 -0.748418,5.98631 -0.672326,8.99143 0.09867,2.08386 -0.341497,4.12564 -0.658542,6.17012 -0.02343,0.30195 -4.293581,-0.0293 -4.270156,-0.33127 l 0,0 c 0.06255,-1.90953 0.09464,-3.81992 0.192635,-5.72834 -0.09744,-3.24138 -0.141643,-6.3961 0.346725,-9.62025 0.49981,-3.33962 0.920035,-6.69268 1.075424,-10.06711 0.147256,-4.36653 1.077337,-8.66191 1.761464,-12.96804 0.890685,-4.63265 1.448585,-9.31752 2.326569,-13.95296 0.862363,-4.70454 2.010462,-9.35161 2.853968,-14.0608 1.073063,-4.90856 1.753641,-9.87994 2.680724,-14.81568 0.770188,-4.70895 1.521573,-9.42261 1.814608,-14.19122 0.358402,-5.05085 0.955259,-10.07927 1.408454,-15.121614 0.548548,-4.858706 1.099364,-9.712932 1.763446,-14.557989 0.167772,-1.894618 0.249323,-2.269727 0.222854,-4.18392 -0.0433,-3.131451 -0.534429,-6.242969 -0.832899,-9.354206 -0.517097,-4.470426 -1.418505,-8.916337 -1.501327,-13.423143 -0.06061,-0.290374 4.0459,-1.147554 4.106512,-0.85718 z"
       inkscape:connector-curvature="0" />
    <path
       style="fill:#000000;fill-opacity:1;stroke:none"
       id="path4589"
       d="m 135.38302,119.03165 c 1.30553,3.63724 1.39985,7.57784 1.46172,11.40145 0.10705,3.97055 -0.24493,7.92997 -0.38455,11.89261 -0.0177,4.00032 0.16978,7.99163 0.21348,11.99108 -0.13685,4.02294 -0.0649,8.04994 -0.0328,12.07429 -0.0775,3.79585 0.63961,7.51348 1.29079,11.22941 0.97081,3.92018 2.05297,7.80331 2.98901,11.73435 0.82924,3.46057 1.31957,6.98999 2.05453,10.47185 0.42279,2.53955 1.26757,5.00632 2.04812,7.45911 0.92718,3.53683 1.91916,7.05295 2.69778,10.62606 0.69104,2.89094 1.32185,5.79266 2.06561,8.6713 0.49499,2.4917 1.33997,4.8885 1.9379,7.35599 0.26073,1.90686 0.56805,3.79178 1.18872,5.61677 0.63867,1.66836 0.8916,3.43342 1.32002,5.15475 0.0679,0.29516 -4.10626,1.2549 -4.17412,0.95974 l 0,0 c -0.50343,-1.67957 -1.13254,-3.33762 -1.34179,-5.0887 -0.48351,-1.90345 -1.01236,-3.79309 -1.51477,-5.69165 -0.63581,-2.42336 -1.27816,-4.84502 -1.94124,-7.26111 -0.85409,-2.89173 -1.74208,-5.77019 -2.52384,-8.68301 -0.97235,-3.48798 -1.78682,-7.01771 -2.45951,-10.57593 -0.58946,-2.53501 -1.01842,-5.11882 -1.93012,-7.5657 -1.01473,-3.45527 -2.04461,-6.91609 -2.75313,-10.44991 -0.83989,-3.98382 -1.83103,-7.92394 -2.81111,-11.87361 -0.88941,-3.98395 -1.2444,-8.02659 -1.48177,-12.09731 0.0457,-4.01171 0.12464,-8.02853 -0.0756,-12.03718 -0.008,-4.03963 0.0938,-8.07227 0.20615,-12.1107 0.0296,-3.89131 -0.0194,-7.78436 -0.0416,-11.67613 -0.1515,-3.83648 -0.46594,-7.7031 1.6e-4,-11.52782 0,-0.28228 3.99199,-0.28228 3.99199,0 z"
       inkscape:connector-curvature="0" />
  </g>
</svg>
